<?xml version="1.0" encoding="UTF-8" standalone="no"?>
<svg
   xmlns:dc="http://purl.org/dc/elements/1.1/"
   xmlns:cc="http://creativecommons.org/ns#"
   xmlns:rdf="http://www.w3.org/1999/02/22-rdf-syntax-ns#"
   xmlns:svg="http://www.w3.org/2000/svg"
   xmlns="http://www.w3.org/2000/svg"
   xmlns:sodipodi="http://sodipodi.sourceforge.net/DTD/sodipodi-0.dtd"
   xmlns:inkscape="http://www.inkscape.org/namespaces/inkscape"
   version="1.1"
   id="Layer_1"
   x="0px"
   y="0px"
   viewBox="0 0 500.31641 495.25302"
   xml:space="preserve"
   sodipodi:docname="minimal-compass.svg"
   width="500.31641"
   height="495.25302"
   inkscape:version="1.0.1 (0767f8302a, 2020-10-17)"><metadata
   id="metadata22"><rdf:RDF><cc:Work
       rdf:about=""><dc:format>image/svg+xml</dc:format><dc:type
         rdf:resource="http://purl.org/dc/dcmitype/StillImage" /></cc:Work></rdf:RDF></metadata><defs
   id="defs20" /><sodipodi:namedview
   pagecolor="#ffffff"
   bordercolor="#666666"
   borderopacity="1"
   objecttolerance="10"
   gridtolerance="10"
   guidetolerance="10"
   inkscape:pageopacity="0"
   inkscape:pageshadow="2"
   inkscape:window-width="1920"
   inkscape:window-height="1016"
   id="namedview18"
   showgrid="false"
   inkscape:zoom="1.7707239"
   inkscape:cx="369.06104"
   inkscape:cy="322.04294"
   inkscape:window-x="0"
   inkscape:window-y="27"
   inkscape:window-maximized="1"
   inkscape:current-layer="Layer_1" />
<style
   type="text/css"
   id="style2">
	.st0{fill:#404040;}
</style>
<g
   id="Layer_3"
   transform="translate(-438.725,-465.46178)">
	<g
   id="g14">
		<path
   class="st0"
   d="m 682.5,468.6 c 0.6,0 1,0.1 1.1,0.2 0.2,0.2 0.2,3.2 0.2,8.9 v 8.6 l -0.5,0.4 c -0.2,0.2 -0.8,0.5 -1.7,0.6 -0.8,0.1 -1.2,0.2 -1.3,0.2 -0.1,0.1 -0.2,0.5 -0.2,1.1 0,0.7 0.1,1 0.2,1.1 0.1,0.1 2,0.2 5.7,0.2 3.7,0 5.6,-0.1 5.7,-0.2 0.1,-0.1 0.2,-0.4 0.2,-1.1 0,-0.7 0,-1 -0.1,-1.1 -0.1,-0.1 -0.6,-0.2 -1.5,-0.3 -0.9,-0.1 -1.6,-0.2 -1.9,-0.5 l -0.6,-0.3 v -7.8 c 0,-5.2 0.1,-7.8 0.2,-7.7 0.1,0 1.2,1.8 3.4,5.4 3.1,5.2 5.6,9.2 7.4,12.1 0.6,0.9 1.2,1.4 1.7,1.5 2.3,0.3 3.7,0.2 4.2,-0.2 0.1,-0.1 0.2,-3.5 0.2,-10.1 0,-5.9 0.2,-9.1 0.3,-9.9 0.1,-0.6 0.3,-0.9 0.7,-1 0.1,0 0.6,-0.1 1.4,-0.2 1,-0.1 1.5,-0.2 1.6,-0.2 0.1,0 0.2,-0.4 0.2,-1.1 0,-0.7 -0.1,-1 -0.2,-1.1 -0.1,-0.1 -2,-0.2 -5.7,-0.2 -3.7,0 -5.6,0.1 -5.7,0.2 -0.1,0.1 -0.2,0.5 -0.2,1.1 0,0.7 0.1,1 0.2,1.1 0.1,0.1 0.5,0.2 1.2,0.2 0.8,0.1 1.4,0.2 1.7,0.3 l 0.6,0.2 v 6.9 c 0,4.6 -0.1,6.7 -0.2,6.6 -0.1,-0.1 -0.2,-0.4 -0.4,-0.7 -0.2,-0.2 -0.9,-1.4 -2.2,-3.6 -4.3,-7.1 -6.6,-11 -7.1,-11.5 -0.2,-0.2 -0.6,-0.5 -1.2,-0.7 -3,-0.7 -6.1,-0.7 -9.3,-0.1 -0.6,0.1 -0.8,0.7 -0.6,1.7 0.3,0.7 1.1,1 2.5,1 z"
   id="path4" />
		<path
   class="st0"
   d="m 702.6,948.7 c -1.1,-1 -2.9,-1.8 -5.3,-2.3 l -3.3,-0.7 c -1.9,-0.4 -3.2,-0.9 -3.7,-1.5 -0.7,-0.6 -0.8,-1.3 -0.6,-2.2 0.2,-0.9 0.6,-1.5 1.2,-1.8 0.6,-0.3 1.6,-0.5 2.9,-0.5 2.9,0 5.1,1.5 6.6,4.5 l 0.7,1.6 c 0.7,0 1.3,0.1 2,0.2 l 0.2,-1.1 c 0.1,-0.7 0.2,-2.2 0.2,-4.1 l 0.2,-3 -0.7,-0.2 c -0.8,-0.2 -1.5,0.1 -2.1,0.7 l -0.6,0.7 -1.7,-0.8 c -1.2,-0.6 -2.2,-1 -3.3,-1.2 -1.2,-0.2 -2.5,-0.2 -3.9,0.2 -2.4,0.6 -4,1.6 -4.8,3 -1.5,2.2 -1.6,4.6 -0.3,6.8 0.6,1.1 1.5,1.9 2.8,2.5 1.2,0.6 3.6,1.2 6.8,2 3.2,0.7 4.8,1.8 4.8,3.4 0,0.9 -0.4,1.7 -1.3,2.2 -0.9,0.7 -2.3,0.9 -4.1,0.7 -1.7,-0.2 -3.2,-0.6 -4.2,-1.4 -1.1,-0.8 -1.9,-2.1 -2.5,-3.7 -0.3,-1 -0.7,-1.6 -1.1,-1.7 -1.1,-0.2 -1.7,0.1 -1.8,0.7 -0.5,2.6 -0.5,5.2 0,7.7 0.1,0.4 0.4,0.7 1,0.7 0.7,0 1.3,-0.4 1.9,-1.3 0.2,-0.2 0.7,-0.1 1.8,0.5 2.1,1.1 4.2,1.5 6.4,1.4 2.7,-0.2 4.6,-0.8 5.9,-2.1 1.2,-1.2 1.9,-2.8 1.9,-4.9 -0.2,-2.3 -0.7,-3.9 -2,-5 z"
   id="path6" />
		<path
   class="st0"
   d="m 938.8,715.5 c -0.1,-0.6 -0.3,-0.9 -0.7,-1 -0.3,-0.1 -0.7,-0.1 -1.1,0 -0.3,0.1 -0.6,0.4 -0.7,0.9 -0.1,0.6 -0.2,1.4 -0.5,2.5 -0.2,1.2 -0.7,2.1 -1.2,2.7 -0.5,0.6 -1.1,0.9 -1.7,1.1 -0.6,0.2 -2.2,0.2 -4.7,0.2 h -3.9 v -8.2 h 1.5 c 1.2,0 2.1,0.2 2.5,0.6 0.4,0.3 0.7,1.2 0.8,2.5 0.2,0.8 0.2,1.2 0.3,1.3 0.1,0.1 0.5,0.2 1.1,0.2 0.6,0 1,-0.1 1.1,-0.2 0.1,-0.1 0.2,-1.7 0.2,-4.9 0.1,-3.2 0.1,-5.1 -0.1,-5.6 -0.1,-0.6 -0.3,-0.9 -0.7,-1 -0.3,-0.1 -0.7,-0.1 -1.1,0 -0.4,0.1 -0.7,0.4 -0.7,0.9 -0.2,1.2 -0.5,2.2 -1,2.7 -0.2,0.3 -1,0.5 -2.2,0.5 h -1.7 v -7.4 l 4,0.2 c 3.3,0.1 5.4,0.5 6.3,1.3 0.5,0.5 0.9,1.2 1.2,2.3 0.3,1.2 0.5,1.9 0.6,2.4 0.1,0.5 0.3,0.8 0.7,0.8 0.3,0.1 0.7,0.1 1.1,0 0.4,-0.1 0.7,-0.5 0.7,-1.2 0.1,-0.7 0.2,-2.2 0.1,-4.6 -0.1,-2.3 -0.2,-3.6 -0.2,-3.7 -0.1,-0.1 -3.8,-0.2 -11.2,-0.2 -7.4,0 -11.4,0 -11.9,0.1 -0.7,0.1 -0.9,0.7 -0.7,1.8 0.1,0.3 0.4,0.6 1,0.7 1.7,0.2 2.7,0.6 2.9,1.1 0.2,0.3 0.2,3.1 0.2,8.1 0,5 -0.1,7.8 -0.2,8.4 -0.2,0.7 -1.1,1.2 -2.5,1.2 -0.7,0.1 -1.2,0.2 -1.2,0.2 -0.1,0.1 -0.2,0.4 -0.2,1.1 0,0.7 0.1,1 0.2,1.1 0.1,0.1 4.1,0.2 11.8,0.2 7.7,0 11.7,-0.1 11.8,-0.2 0.1,-0.1 0.2,-1.5 0.2,-4.1 -0.1,-2.5 -0.1,-4.2 -0.2,-4.8 z"
   id="path8" />
		<path
   class="st0"
   d="m 473.5,700.6 c -2.8,-0.6 -5.6,-0.6 -8.4,0 -0.3,0.1 -0.6,0.2 -0.6,0.2 0,0 0,0.4 0.1,0.9 0.1,0.7 0.2,1.1 0.2,1.2 0.1,0.1 0.5,0.2 1.1,0.2 0.7,0.1 1.1,0.2 1.2,0.4 0.2,0.2 0.3,0.6 0.3,1.1 0,0.5 -0.6,2.8 -1.7,7.1 -1.2,4.2 -1.8,6.2 -1.9,6.2 -0.1,0 -0.2,-0.1 -0.2,-0.2 -0.3,-1.2 -1,-3.4 -2.1,-6.8 -1.2,-4.1 -1.9,-6.3 -1.9,-6.9 0,-0.4 0.7,-0.7 1.9,-0.9 0.5,-0.1 0.8,-0.3 0.9,-0.7 0.1,-0.4 0.1,-0.7 0,-1.2 -0.1,-0.3 -0.4,-0.6 -1,-0.7 -0.6,-0.1 -2.3,-0.1 -5.2,-0.1 -2.9,0.1 -4.4,0.2 -4.5,0.2 -0.1,0.1 -0.2,0.4 -0.2,1.1 0,0.7 0.1,1 0.2,1.1 0.1,0.1 0.3,0.2 0.9,0.2 0.9,0.1 1.6,0.8 2.1,2.1 l 0.4,1 -1.9,5.7 c -1.2,3.7 -1.9,5.7 -2.1,5.9 -0.3,0.2 -0.7,-0.4 -1.2,-2.2 -0.8,-3.2 -1.6,-6.1 -2.3,-8.7 l -0.7,-2.7 0.5,-0.5 c 0.2,-0.3 0.7,-0.5 1.2,-0.6 0.6,-0.1 0.9,-0.2 0.9,-0.2 0.1,-0.1 0.2,-0.4 0.2,-1.1 0,-0.7 -0.1,-1 -0.2,-1.1 -0.1,-0.1 -1.7,-0.2 -4.8,-0.2 -3.2,0 -4.9,0 -5.3,0.1 -0.6,0.1 -0.8,0.7 -0.6,1.8 0.1,0.3 0.4,0.6 1,0.7 1.1,0.2 1.7,0.9 2.1,2 l 2.7,8.9 c 1.3,4.5 2.2,7.5 2.7,8.9 0.2,1 0.6,1.6 0.7,1.7 0.2,0.2 0.9,0.2 2,0.2 1.3,0 2.2,-0.2 2.4,-0.4 0.2,-0.2 1,-2.2 2.2,-5.8 1.2,-3.6 1.8,-5.5 2,-5.6 0.2,-0.4 0.7,0.3 1.2,2.2 l 2.3,7.6 c 0.2,1 0.6,1.6 0.8,1.8 0.2,0.2 1,0.3 2.1,0.3 1.3,0 2.1,-0.1 2.3,-0.3 0.2,-0.2 0.7,-1.4 1.2,-3.5 0.2,-0.9 1.5,-5.4 3.8,-13.4 0.6,-1.7 0.9,-2.9 1.2,-3.3 0.2,-0.5 0.7,-0.8 1.3,-1.1 0.9,-0.4 1.3,-1.1 1.1,-2.1 0.3,-0.2 0.1,-0.4 -0.4,-0.5 z"
   id="path10" />
		<path
   class="st0"
   d="m 906,710.5 -33.1,-4.2 c -3.5,-93 -78.4,-167.9 -171.4,-171.4 l -4.2,-33.1 c -0.2,-1.2 -1.2,-2.2 -2.5,-2.1 v 0 0 0 0 0 0 c -1.2,-0.1 -2.3,0.8 -2.5,2.1 l -4.2,33.1 c -93,3.5 -167.9,78.4 -171.4,171.4 l -33.1,4.2 c -1.2,0.2 -2.2,1.2 -2.1,2.5 v 0 0 0 0 0 c -0.1,1.2 0.8,2.3 2.1,2.5 l 33.1,4.2 c 3.5,93 78.4,167.9 171.4,171.4 l 4.2,33.1 c 0.2,1.2 1.2,2.2 2.5,2.1 v 0 0 0 0 0 c 1.2,0.1 2.3,-0.8 2.5,-2.1 l 4.2,-33.1 c 93,-3.5 167.9,-78.4 171.4,-171.4 l 33.1,-4.2 c 1.2,-0.2 2.2,-1.2 2.1,-2.5 v 0 0 0 0 0 0 c 0.1,-1.3 -0.9,-2.4 -2.1,-2.5 z m -380.4,-33.9 19.1,-4 -14.5,-13 c 2.9,-8.9 6.5,-17.4 10.7,-25.6 l 19.4,1.1 -10.6,-16.1 c 5.1,-7.8 10.8,-15.2 17,-22.1 l 18.2,6 -6,-18.1 c 6.9,-6.2 14.4,-12 22.2,-17 l 15.9,10.4 -1.1,-19 c 8.3,-4.2 16.9,-7.8 25.9,-10.7 l 12.6,14.1 3.8,-18.5 c 9.4,-2 19,-3.2 28.8,-3.7 l -6.7,52.3 c -26.1,3.1 -49.7,14.5 -68,31.4 l -21.3,-14.8 14.7,21.4 c -16.9,18.4 -28.3,42 -31.4,68 l -52.3,6.7 c 0.4,-9.8 1.6,-19.5 3.6,-28.8 z m 90.3,-50.3 c 17.4,-15.9 39.5,-26.5 64.1,-29.6 l -8.7,67.5 z m 30.1,63.2 -67.5,8.7 c 3.1,-24.5 13.8,-46.7 29.7,-64.1 z m 13.2,192.7 -4.1,-19.4 -13.3,14.9 c -8.8,-2.8 -17.3,-6.3 -25.3,-10.5 l 1.2,-19.9 -16.7,10.9 c -7.7,-5 -15,-10.6 -21.9,-16.7 l 6.2,-18.8 -18.9,6.2 c -6.1,-6.8 -11.8,-14.1 -16.8,-21.8 l 10.9,-16.5 -19.8,1.1 c -4.2,-8.1 -7.7,-16.6 -10.6,-25.4 l 14.8,-13.2 -19.4,-4.1 c -2,-9.2 -3.2,-18.8 -3.7,-28.5 l 52.3,6.7 c 3.1,26.1 14.5,49.7 31.4,68 l -14.7,21.4 21.4,-14.7 c 18.4,16.9 42,28.3 68,31.4 l 6.7,52.3 c -9.3,-0.3 -18.7,-1.5 -27.7,-3.4 z m -51.1,-90.4 c -15.9,-17.4 -26.5,-39.5 -29.6,-64.1 l 67.5,8.7 z m 63.1,-30.1 8.7,67.5 c -24.5,-3.1 -46.7,-13.8 -64.1,-29.7 z m 8.2,-36.6 -9.9,9.9 -147.7,-19 c 0,-0.2 0,-0.4 0,-0.7 h 51.7 4 111.7 z m 13.1,-133.3 v 4 111.7 l -3.8,-3.8 -15.9,-15.9 11.9,-92 0.5,-3.7 6.7,-52 c 0.2,0 0.4,0 0.7,0 z m 38.6,-47.8 3.8,18.4 12.5,-14 c 9.1,2.9 17.8,6.5 26.1,10.8 l -1.1,18.7 15.6,-10.2 c 8,5.2 15.5,10.9 22.4,17.2 l -5.8,17.7 17.8,-5.8 c 6.3,7 12.1,14.5 17.3,22.3 l -10.2,15.6 18.8,-1.1 c 4.3,8.3 8,16.9 10.9,25.9 l -14,12.5 18.5,3.8 c 2.1,9.6 3.4,19.5 3.8,29.6 l -52.3,-6.7 c -3.1,-26.1 -14.5,-49.7 -31.4,-68 L 798.5,609.3 777,624 c -18.4,-16.9 -42,-28.3 -68,-31.4 l -6.7,-52.3 c 9.8,0.3 19.4,1.7 28.8,3.7 z m 50.3,90.1 c 15.9,17.4 26.5,39.5 29.6,64.1 l -67.5,-8.7 z m -63.2,30.2 -8.7,-67.5 c 24.5,3.1 46.7,13.8 64.1,29.7 z m -20.6,221.6 c -0.2,0 -0.4,0 -0.7,0 v -51.7 -4 -111.8 l 19.7,19.7 z m 76,-86.3 c -17.4,15.9 -39.5,26.5 -64.1,29.6 l 8.7,-67.5 z m -30.2,-63.1 67.5,-8.7 c -3.1,24.5 -13.8,46.7 -29.7,64.1 z m 120.6,12.1 -18.7,3.9 14.3,12.8 c -2.8,9 -6.4,17.5 -10.6,25.8 l -19.2,-1.1 10.6,16.1 c -5.1,7.8 -10.7,15.2 -16.9,22.2 l -18.4,-6.1 6.1,18.4 c -6.8,6.2 -14.1,12 -21.9,17 l -16.3,-10.5 1.1,19.6 c -8.1,4.2 -16.6,7.8 -25.4,10.7 l -13.1,-14.9 -4,19.4 c -9.5,2.1 -19.3,3.3 -29.2,3.7 l 6.7,-52.3 c 26.1,-3.1 49.7,-14.5 68,-31.4 l 21.4,14.7 -14.7,-21.4 c 16.9,-18.4 28.3,-42 31.4,-68 l 52.3,-6.7 c -0.5,9.6 -1.6,19 -3.5,28.1 z m -48.1,-37.9 h -4 -111.7 l 10.7,-10.7 9,-9 147.7,19 c 0,0.2 0,0.4 0,0.7 z"
   id="path12" />
	</g>
</g>
<path
   style="fill:#2196F3;stroke-width:0.564741"
   d="m 254.51613,459.67478 c -0.33306,-0.40132 -1.55018,-8.21592 -2.70471,-17.36578 -1.15453,-9.14987 -2.12027,-16.66985 -2.1461,-16.71109 -0.0258,-0.0412 -3.47776,-0.36484 -7.67096,-0.71913 -42.52963,-3.59343 -81.50831,-21.6607 -111.55536,-51.70774 -14.75945,-14.75945 -25.21165,-29.48549 -34.485734,-48.58676 -9.719888,-20.01946 -15.324578,-40.51181 -17.222007,-62.9686 -0.354293,-4.1932 -0.677905,-7.64513 -0.719136,-7.67096 -0.04123,-0.0258 -7.561218,-0.99158 -16.711082,-2.14611 -9.149864,-1.15452 -16.964464,-2.37164 -17.365779,-2.7047 -0.92772,-0.76994 -0.940048,-2.41515 -0.02374,-3.16768 0.38826,-0.31886 8.20286,-1.51797 17.36578,-2.66468 9.162919,-1.14672 16.693587,-2.12408 16.734818,-2.17192 0.04123,-0.0479 0.368168,-3.51779 0.726527,-7.71099 2.067569,-24.19289 8.110342,-45.33655 19.099415,-66.82884 17.343088,-33.9194 45.248208,-61.40654 79.493478,-78.302809 22.1926,-10.949605 41.98503,-16.292397 68.08062,-18.377769 l 4.26492,-0.340821 2.10956,-16.730944 c 1.16026,-9.202019 2.3853,-17.063186 2.72231,-17.46926 0.7762,-0.935268 2.41959,-0.952034 3.17486,-0.03239 0.31886,0.388259 1.51797,8.20286 2.66468,17.365779 1.14671,9.16292 2.13063,16.708769 2.1865,16.768554 0.0559,0.05979 3.39874,0.385795 7.42861,0.724468 42.99396,3.613228 81.51913,21.494955 112.01821,51.994032 29.83922,29.83923 47.89854,68.95779 51.47362,111.49779 0.33867,4.02988 0.66468,7.36784 0.72447,7.41768 0.0598,0.0499 7.60563,1.03569 16.76855,2.19078 9.16292,1.15508 16.97752,2.35911 17.36578,2.67562 0.91971,0.74975 0.90291,2.39435 -0.0324,3.17058 -0.40607,0.33701 -8.26724,1.56205 -17.46926,2.72231 l -16.73094,2.10956 -0.34082,4.26491 c -2.07503,25.96616 -7.67401,46.70618 -18.37904,68.08063 -5.57624,11.13393 -10.20835,18.70287 -16.93422,27.67083 -16.29128,21.72199 -37.49845,39.6288 -61.36732,51.81703 -21.56312,11.01084 -42.64752,17.03845 -66.82884,19.10503 -4.1932,0.35835 -7.65823,0.68529 -7.70005,0.72652 -0.0419,0.0412 -1.02111,7.5719 -2.1762,16.73482 -1.15508,9.16292 -2.35911,16.97752 -2.67562,17.36578 -0.74703,0.91638 -2.39343,0.90402 -3.1634,-0.0237 z m 4.68675,-40.07286 c 0.15831,-0.69887 4.48986,-34.04656 9.62569,-74.10597 l 9.33786,-72.83529 -10.17966,-10.17967 -10.17967,-10.17967 v 84.28563 c 0,78.48134 0.16741,88.43796 1.39578,83.01497 z m -11.02301,-0.84712 c -0.0146,-0.85417 -1.47592,-12.7349 -3.24726,-26.40163 l -3.22062,-24.84859 -1.69423,-0.15691 c -4.05729,-0.37577 -16.24993,-3.19534 -21.71833,-5.02241 -15.00947,-5.01487 -30.41258,-13.70803 -41.35456,-23.33956 l -3.3383,-2.9385 -2.37307,1.55369 c -1.30519,0.85452 -5.63561,3.82278 -9.62316,6.59613 -3.98754,2.77334 -7.32886,4.9589 -7.42513,4.85678 -0.0963,-0.10212 2.72152,-4.37713 6.26178,-9.50003 3.54026,-5.1229 6.43684,-9.58947 6.43684,-9.92571 0,-0.33624 -0.65847,-1.22744 -1.46328,-1.98045 -2.20488,-2.06298 -8.77968,-10.8846 -12.38481,-16.61711 -7.17676,-11.41172 -13.00727,-26.15313 -15.77535,-39.88518 -0.79051,-3.92162 -1.4373,-7.66525 -1.4373,-8.31917 0,-0.7763 -0.44102,-1.28289 -1.27067,-1.45962 -2.86522,-0.61032 -51.369376,-6.59684 -51.597868,-6.36834 -0.895372,0.89537 2.748217,27.31154 3.920553,28.42417 0.364455,0.34589 4.702848,1.47658 9.640873,2.51264 l 8.978222,1.88375 -3.33081,2.97602 c -1.83196,1.63682 -5.030332,4.4452 -7.107509,6.24084 -2.077177,1.79565 -3.792577,3.54658 -3.812,3.89096 -0.06016,1.0666 4.183993,12.02755 7.372735,19.04084 l 3.036274,6.67795 5.36673,-0.34041 c 2.9517,-0.18723 7.35096,-0.48813 9.77614,-0.66866 l 4.40941,-0.32824 -5.35525,8.21148 -5.35525,8.21149 2.83702,4.13329 c 2.82885,4.1214 13.13334,17.13892 13.98223,17.66356 0.24594,0.152 4.57142,-1.1041 9.61218,-2.79132 5.08235,-1.70115 9.04963,-2.76375 8.90597,-2.38538 -1.08462,2.85661 -5.49096,16.85925 -5.4906,17.44825 5.6e-4,1.08079 10.53681,9.59191 19.29541,15.58687 l 2.63602,1.80426 6.06274,-3.99581 c 3.33451,-2.1977 7.07259,-4.6333 8.30685,-5.41246 l 2.24411,-1.41664 -0.33625,3.01717 c -0.18493,1.65945 -0.50089,6.07917 -0.70212,9.82161 l -0.36588,6.80444 6.13674,2.86936 c 5.90747,2.76217 15.33087,6.48441 18.29,7.22455 1.26869,0.31732 2.12428,-0.42576 7.88182,-6.84536 l 6.45865,-7.20132 1.93166,9.29047 c 1.0624,5.10976 2.1694,9.44235 2.45999,9.62798 1.22391,0.78186 18.7601,3.13204 24.31804,3.25908 3.18997,0.0729 3.24679,0.0468 3.22062,-1.47882 z m 27.42003,0.69736 c 11.99357,-1.39853 17.783,-2.57333 17.8039,-3.61282 0.01,-0.4931 0.83887,-4.78024 1.84213,-9.52698 l 1.82412,-8.63045 6.36782,7.32206 6.36783,7.32206 2.94366,-1.03808 c 6.26435,-2.20913 10.85563,-4.08949 16.84564,-6.89915 l 6.22378,-2.9193 -0.30868,-3.99342 c -0.16978,-2.19639 -0.46784,-6.50833 -0.66235,-9.5821 l -0.35367,-5.58868 2.17666,1.33505 c 1.19717,0.73428 4.82616,3.04294 8.06444,5.13036 l 5.88776,3.79531 4.01794,-2.7776 c 4.72994,-3.26981 15.36224,-11.73524 16.9157,-13.46827 1.07456,-1.19877 1.0609,-1.28045 -1.62199,-9.69655 -1.48812,-4.66817 -2.56273,-8.63053 -2.38802,-8.80525 0.17471,-0.17471 4.14118,0.9598 8.81437,2.52115 l 8.49671,2.8388 2.33387,-2.63716 c 3.17532,-3.58794 12.53727,-16.07383 13.77376,-18.36985 l 1.00195,-1.86052 -5.20593,-7.77834 -5.20593,-7.77834 5.55387,0.35106 c 3.05463,0.19309 7.33281,0.48534 9.50706,0.64946 l 3.95318,0.29839 2.76049,-6.0994 c 2.83841,-6.27156 6.75064,-16.24513 7.40686,-18.88251 0.33611,-1.35086 -0.25966,-2.05058 -6.45146,-7.57704 -3.75198,-3.3488 -6.74315,-6.16735 -6.64705,-6.26345 0.0961,-0.0961 4.09865,-0.97824 8.89457,-1.96032 4.79592,-0.98208 8.79432,-1.84617 8.88533,-1.92019 0.87239,-0.70956 4.09523,-27.54492 3.39245,-28.24769 -0.40001,-0.40002 -50.02561,5.8449 -51.62373,6.49636 -0.96352,0.39278 -1.26926,1.16625 -1.59336,4.03091 -0.57492,5.08165 -3.77799,17.34953 -6.25076,23.94068 -5.09557,13.58222 -11.69997,24.53574 -23.32823,38.69031 l -1.30393,1.58722 6.30335,9.12275 c 3.46685,5.01751 6.17619,9.24992 6.02076,9.40534 -0.15542,0.15543 -4.39104,-2.54681 -9.41249,-6.00496 -7.95291,-5.47699 -9.25118,-6.19152 -10.07076,-5.54262 -0.51747,0.40971 -2.72479,2.23074 -4.90516,4.04672 -9.29983,7.74568 -22.56921,15.38982 -34.46029,19.85166 -6.59027,2.47283 -18.85814,5.67607 -23.94068,6.25109 -2.86806,0.32448 -3.63641,0.6287 -4.02431,1.59337 -0.2637,0.65577 -1.78489,11.61178 -3.38044,24.34668 -1.59555,12.73491 -3.04263,24.10738 -3.21574,25.27215 l -0.31475,2.11778 h 2.47579 c 1.36168,0 5.77796,-0.38506 9.81396,-0.85568 z m -34.17028,-55.87391 c 0,-0.14053 -1.906,-14.98581 -4.23556,-32.98951 -2.32955,-18.0037 -4.23556,-33.16391 -4.23556,-33.68936 0,-0.55544 -0.30958,-0.83656 -0.73956,-0.67156 -1.9527,0.74932 -55.13566,37.46531 -54.98063,37.95705 0.33651,1.06734 8.00652,7.21711 13.92938,11.16848 7.41543,4.94713 19.78225,10.97614 28.0786,13.68873 8.67346,2.83589 22.18333,5.59846 22.18333,4.53617 z m 38.50729,-1.12663 c 18.41338,-3.83138 37.49662,-13.00568 51.19616,-24.61266 3.41326,-2.89189 4.01159,-3.63837 3.38844,-4.2274 -1.65291,-1.56245 -54.82184,-37.60262 -55.08529,-37.33917 -0.30951,0.30951 -8.64008,64.21819 -8.64008,66.28309 0,1.64749 0.76573,1.63878 9.14077,-0.10386 z m -91.32172,-63.63048 c 10.44085,-15.25685 18.88094,-27.84216 18.75575,-27.96735 -0.24965,-0.24965 -64.96321,-8.66375 -66.67932,-8.66969 -0.96705,-0.003 -1.02613,0.30668 -0.66559,3.49338 1.44473,12.76968 8.54156,31.78798 16.60774,44.50591 3.79372,5.98155 11.93494,16.37748 12.82547,16.37748 0.0949,0 8.71511,-12.48288 19.15595,-27.73973 z m 158.84078,22.23351 c 13.10447,-16.46795 21.38623,-35.39269 24.71392,-56.47408 0.28684,-1.81713 0.19534,-2.39943 -0.3767,-2.3972 -0.41556,0.002 -15.49056,1.90762 -33.50001,4.23555 -18.00944,2.32794 -32.96697,4.23261 -33.23894,4.23261 -0.27197,0 -0.33514,0.41529 -0.14037,0.92286 0.60988,1.58932 37.22498,54.98648 37.70491,54.98648 0.25057,0 2.4273,-2.4778 4.83719,-5.50622 z M 241.00001,260.06887 c 5.206,-5.19925 9.46546,-9.64658 9.46546,-9.88296 0,-0.23639 -37.7388,-0.42979 -83.86401,-0.42979 -51.19788,0 -83.864005,0.20415 -83.864005,0.5241 0,0.28827 1.461266,0.70658 3.247259,0.9296 1.785993,0.22301 34.124466,4.40518 71.863266,9.2937 37.7388,4.88852 69.75688,8.91754 71.15129,8.95338 l 2.53527,0.0651 z m 187.92355,-15.32106 c 0,-0.2697 -0.953,-0.61722 -2.11778,-0.77224 -1.16478,-0.15502 -34.46346,-4.43711 -73.99709,-9.51573 l -71.8793,-9.23388 -10.00612,10.00612 -10.00612,10.00612 h 84.0032 c 47.13378,0 84.00321,-0.21523 84.00321,-0.49039 z M 253.88292,158.2663 c 0.0483,-49.13545 -0.12756,-83.895046 -0.42493,-83.994167 -0.27901,-0.093 -1.95651,11.080509 -3.72778,24.830031 -1.77126,13.749526 -6.01537,46.565676 -9.43135,72.924776 -3.41598,26.35911 -6.21087,48.59313 -6.21087,49.40894 0,1.16678 2.07303,3.55886 9.71523,11.21043 5.34338,5.34993 9.7787,9.66368 9.85628,9.5861 0.0776,-0.0776 0.17812,-37.86233 0.22342,-83.96611 z m -145.22076,78.76258 c 13.54078,-1.71966 25.18026,-3.2465 25.86553,-3.393 0.92993,-0.19879 1.33181,-0.80231 1.58457,-2.37957 3.77149,-23.5353 12.80092,-43.9473 26.94622,-60.91486 l 4.29444,-5.15126 -6.44669,-9.37491 c -3.54568,-5.1562 -6.44669,-9.52476 -6.44669,-9.70792 0,-0.18315 2.73193,1.55892 6.07096,3.87128 3.33903,2.31237 7.64428,5.28868 9.56723,6.61404 l 3.49627,2.40973 3.28062,-2.80266 c 17.19155,-14.68688 39.35336,-24.99683 60.01946,-27.9218 4.51944,-0.63966 5.10389,-0.85427 5.13201,-1.88452 0.0174,-0.63946 1.50473,-12.47159 3.30507,-26.29362 1.80033,-13.822028 3.19307,-25.227568 3.09497,-25.345641 -0.60137,-0.723812 -28.24494,2.880713 -29.08486,3.79246 -0.19021,0.206472 -1.05112,4.060338 -1.91314,8.564146 -0.86201,4.503807 -1.72386,8.367572 -1.91521,8.586149 -0.29078,0.33213 -6.82055,-6.566817 -11.11641,-11.744904 l -1.17206,-1.412768 -6.84944,2.548545 c -3.76718,1.401701 -9.68062,3.876535 -13.14096,5.499629 l -6.29153,2.951087 0.37834,8.222137 c 0.20809,4.52217 0.50334,8.66686 0.65612,9.21042 0.15278,0.54357 0.14173,0.9883 -0.0246,0.9883 -0.16628,0 -3.57874,-2.16013 -7.58323,-4.8003 -4.0045,-2.64016 -7.59769,-4.80029 -7.98488,-4.80029 -1.05416,0 -10.86521,6.98064 -16.96063,12.06763 -2.95077,2.46259 -5.42479,4.52066 -5.49781,4.57348 -0.073,0.0528 1.16131,3.96933 2.74298,8.70335 1.58166,4.73402 2.76762,8.71544 2.63546,8.84761 -0.13217,0.13216 -4.13497,-1.06094 -8.89512,-2.65133 -8.58097,-2.86696 -8.66257,-2.88193 -9.56195,-1.75472 -0.49891,0.62531 -2.45896,3.01039 -4.35565,5.30019 -4.66945,5.63723 -11.51709,15.14889 -11.51709,15.99774 0,0.37924 2.29045,4.17959 5.08987,8.44521 3.25848,4.96509 4.73168,7.65405 4.09437,7.47323 -0.54752,-0.15535 -4.87492,-0.4566 -9.61645,-0.66945 l -8.62097,-0.38699 -3.0352,6.41769 c -2.614192,5.52751 -6.127991,14.30482 -7.355144,18.3728 -0.312122,1.03468 0.687156,2.16819 6.430918,7.29475 3.740256,3.33834 6.800466,6.218 6.800466,6.39923 0,0.18123 -3.98818,1.15626 -8.86262,2.16673 -4.874439,1.01047 -9.041735,2.12703 -9.260659,2.48126 -1.3452,2.17658 -4.228819,28.71834 -3.120092,28.71834 0.287974,0 11.602407,-1.40699 25.143181,-3.12665 z m 320.2614,0.72304 c 0,-4.74891 -2.9584,-26.59522 -3.71805,-27.45601 -0.10229,-0.1159 -3.98199,-1.00536 -8.62157,-1.97659 -4.63957,-0.97123 -8.47611,-1.97159 -8.52563,-2.22303 -0.0495,-0.25143 2.65537,-2.8987 6.01087,-5.88283 3.35549,-2.98412 6.1786,-5.8648 6.27357,-6.4015 0.24411,-1.37948 -3.37492,-10.87342 -7.25228,-19.02518 -2.82623,-5.94187 -3.47534,-6.91526 -4.6,-6.89814 -0.72019,0.0109 -4.72847,0.25568 -8.90729,0.54382 -4.17882,0.28814 -7.68473,0.43701 -7.79092,0.33083 -0.10619,-0.10619 2.00182,-3.54686 4.68447,-7.64595 l 4.87753,-7.45287 -1.94573,-2.92203 c -2.18326,-3.27875 -9.62968,-12.88195 -13.22425,-17.0545 l -2.3603,-2.73983 -8.27991,2.69036 c -4.55394,1.4797 -8.4004,2.56985 -8.54769,2.42256 -0.14729,-0.14729 0.92343,-3.98267 2.37937,-8.52308 l 2.64719,-8.25528 -2.70577,-2.39098 c -3.6688,-3.24199 -7.95951,-6.57247 -14.46303,-11.22633 l -5.45342,-3.90241 -7.3586,4.81584 c -4.04723,2.64871 -7.52551,4.81584 -7.72951,4.81584 -0.34784,0 -0.0574,-6.66296 0.62944,-14.44083 l 0.30275,-3.428383 -5.54033,-2.600445 c -6.53076,-3.065316 -10.0504,-4.493618 -16.52858,-6.707436 l -4.7761,-1.63216 -1.15368,1.381637 c -0.63452,0.7599 -3.30692,3.814635 -5.93866,6.788299 -3.79931,4.292906 -4.85734,5.201495 -5.13619,4.410694 -0.19315,-0.547788 -1.0537,-4.585712 -1.91232,-8.97317 l -1.56114,-7.977199 -7.13883,-1.221654 c -13.37388,-2.288646 -22.10169,-2.920928 -22.10765,-1.60158 -0.0109,2.408879 6.47125,51.086207 6.8716,51.601917 0.27072,0.34872 2.00254,0.80492 3.84848,1.01377 4.56533,0.5165 15.57179,3.25573 21.7557,5.41445 11.70238,4.08512 26.68803,12.4995 36.04979,20.24181 2.12275,1.75555 4.42946,3.6534 5.12601,4.21743 1.25765,1.01838 1.33033,0.98166 10.44291,-5.27521 5.04705,-3.46541 9.30528,-6.17191 9.46273,-6.01445 0.15745,0.15745 -2.54635,4.39942 -6.00846,9.4266 -5.58103,8.10399 -6.20466,9.24592 -5.50024,10.07161 11.19038,13.1169 18.57933,25.30659 23.84265,39.33364 2.466,6.57209 5.67561,18.85409 6.24711,23.90551 0.21839,1.93033 0.67784,3.68322 1.021,3.8953 0.55659,0.34399 47.90127,6.71503 51.04229,6.86862 1.12843,0.0552 1.27067,-0.20693 1.27067,-2.34148 z m -254.59954,-9.16695 c 18.05727,-2.32592 32.93502,-4.33255 33.06167,-4.4592 0.36711,-0.3671 -37.39453,-55.41345 -37.98892,-55.37766 -0.89102,0.0537 -6.89076,7.5017 -11.08043,13.75522 -4.4236,6.60266 -9.26275,15.9222 -12.15395,23.40686 -2.30259,5.96082 -5.57568,18.43432 -6.13346,23.37408 -0.34593,3.06363 -0.27562,3.52963 0.53256,3.52963 0.51211,0 15.70524,-1.90302 33.76253,-4.22893 z m 198.12546,3.31159 c 0,-2.53254 -3.14444,-15.98148 -5.13313,-21.95466 -4.27516,-12.8408 -12.45848,-27.54725 -20.81887,-37.41408 -1.90808,-2.2519 -3.64753,-4.08222 -3.86544,-4.06737 -0.33486,0.0228 -8.72631,12.2068 -33.9235,49.25525 -2.28843,3.36477 -4.04225,6.2363 -3.89739,6.38116 0.30848,0.30847 63.09278,8.56834 65.80292,8.657 1.34208,0.0439 1.83541,-0.18653 1.83541,-0.8573 z M 232.95196,198.5059 c -0.003,-0.23296 1.92357,-15.37507 4.28262,-33.64915 2.35904,-18.27407 4.14736,-33.36737 3.97405,-33.54068 -0.48305,-0.48306 -8.38866,0.9021 -15.30938,2.68238 -14.38215,3.69965 -28.56987,10.61314 -40.66134,19.81375 -7.75894,5.90389 -8.50117,6.64693 -7.56243,7.57064 1.092,1.07452 54.33736,37.49318 54.85947,37.52268 0.23295,0.0132 0.42061,-0.16667 0.41701,-0.39962 z m 74.79582,-18.49527 c 15.06092,-10.25004 27.39369,-18.80244 27.40615,-19.00532 0.0317,-0.51665 -9.72747,-8.31739 -13.81349,-11.04142 -12.53417,-8.35615 -27.10357,-14.4286 -41.71723,-17.38753 -8.64232,-1.74988 -8.82707,-1.75211 -8.82707,-0.10663 0,1.31961 7.5988,61.17936 8.20823,64.66058 0.18022,1.02942 0.55992,1.79182 0.84379,1.69422 0.28386,-0.0976 12.83869,-8.56385 27.89962,-18.8139 z"
   id="path24" /></svg>
