<?xml version="1.0" encoding="UTF-8" standalone="no"?>
<svg
   xmlns:dc="http://purl.org/dc/elements/1.1/"
   xmlns:cc="http://creativecommons.org/ns#"
   xmlns:rdf="http://www.w3.org/1999/02/22-rdf-syntax-ns#"
   xmlns:svg="http://www.w3.org/2000/svg"
   xmlns="http://www.w3.org/2000/svg"
   xmlns:sodipodi="http://sodipodi.sourceforge.net/DTD/sodipodi-0.dtd"
   xmlns:inkscape="http://www.inkscape.org/namespaces/inkscape"
   width="20"
   height="20"
   viewBox="0 0 20 20"
   fill="none"
   version="1.1"
   id="svg4"
   sodipodi:docname="checkbox-active.svg"
   inkscape:version="1.0.1 (0767f8302a, 2020-10-17)">
  <metadata
     id="metadata10">
    <rdf:RDF>
      <cc:Work
         rdf:about="">
        <dc:format>image/svg+xml</dc:format>
        <dc:type
           rdf:resource="http://purl.org/dc/dcmitype/StillImage" />
        <dc:title />
      </cc:Work>
    </rdf:RDF>
  </metadata>
  <defs
     id="defs8" />
  <sodipodi:namedview
     pagecolor="#ffffff"
     bordercolor="#666666"
     borderopacity="1"
     objecttolerance="10"
     gridtolerance="10"
     guidetolerance="10"
     inkscape:pageopacity="0"
     inkscape:pageshadow="2"
     inkscape:window-width="792"
     inkscape:window-height="927"
     id="namedview6"
     showgrid="false"
     inkscape:zoom="12.6"
     inkscape:cx="11.366391"
     inkscape:cy="14.009085"
     inkscape:window-x="1310"
     inkscape:window-y="488"
     inkscape:window-maximized="0"
     inkscape:current-layer="svg4"
     inkscape:document-rotation="0" />
  <rect
     x="0.5"
     y="0.5"
     width="19"
     height="19"
     rx="1.5"
     stroke="#9ABBCE"
     id="rect2" />
  <path
     style="fill:#b3b3b3;stroke-width:0.0793651"
     d="m 1.4468413,18.757664 c -0.45523434,-0.358087 -0.4375936,-0.0051 -0.4375936,-8.756516 0,-8.7514308 -0.0176407,-8.3984285 0.4375936,-8.7565158 L 1.6655745,1.0725766 h 8.3446535 c 9.175144,0 8.55282,-0.033673 8.816933,0.477067 0.176001,0.3403473 0.179459,16.5559744 0.0036,16.8960414 -0.267519,0.517326 0.340481,0.484034 -8.8397671,0.484034 H 1.6655745 Z"
     id="path12" />
  <path
     style="fill:#cccccc;stroke-width:0.0793651"
     d="M 1.4477203,18.669779 C 1.2448749,18.466934 1.1744213,18.314401 1.126962,17.975335 1.0475912,17.408281 1.0475912,2.5940163 1.126962,2.0269621 1.1744213,1.6878958 1.2448749,1.535363 1.4477203,1.3325176 l 0.2599405,-0.2599405 6.4960318,0.00694 c 6.4163734,0.00685 10.1005544,0.072839 10.3589424,0.1855307 0.07301,0.031844 0.159558,0.1176364 0.192319,0.1906503 0.120989,0.2696388 0.21417,8.6304329 0.142858,12.8180969 l -0.0711,4.175484 -0.18076,0.180681 c -0.177377,0.1773 -0.224907,0.181662 -2.539682,0.23313 -1.297408,0.02885 -5.067851,0.05564 -8.3787639,0.05954 l -6.0198413,0.0071 z"
     id="path8" />
</svg>
