<?xml version="1.0" encoding="UTF-8" standalone="no"?>
<svg
   xmlns:dc="http://purl.org/dc/elements/1.1/"
   xmlns:cc="http://creativecommons.org/ns#"
   xmlns:rdf="http://www.w3.org/1999/02/22-rdf-syntax-ns#"
   xmlns:svg="http://www.w3.org/2000/svg"
   xmlns="http://www.w3.org/2000/svg"
   xmlns:sodipodi="http://sodipodi.sourceforge.net/DTD/sodipodi-0.dtd"
   xmlns:inkscape="http://www.inkscape.org/namespaces/inkscape"
   width="359.99985"
   height="151.37355"
   viewBox="0 0 359.99985 151.37355"
   version="1.1"
   xml:space="preserve"
   style="clip-rule:evenodd;fill-rule:evenodd;stroke-linejoin:round;stroke-miterlimit:2"
   id="svg20"
   sodipodi:docname="EY.svg"
   inkscape:version="1.0.1 (0767f8302a, 2020-10-17)"><metadata
   id="metadata26"><rdf:RDF><cc:Work
       rdf:about=""><dc:format>image/svg+xml</dc:format><dc:type
         rdf:resource="http://purl.org/dc/dcmitype/StillImage" /><dc:title></dc:title></cc:Work></rdf:RDF></metadata><defs
   id="defs24" /><sodipodi:namedview
   pagecolor="#ffffff"
   bordercolor="#666666"
   borderopacity="1"
   objecttolerance="10"
   gridtolerance="10"
   guidetolerance="10"
   inkscape:pageopacity="0"
   inkscape:pageshadow="2"
   inkscape:window-width="3051"
   inkscape:window-height="1563"
   id="namedview22"
   showgrid="false"
   inkscape:zoom="2.52"
   inkscape:cx="180.00005"
   inkscape:cy="75.686788"
   inkscape:window-x="0"
   inkscape:window-y="27"
   inkscape:window-maximized="0"
   inkscape:current-layer="svg20" />
    <g
   transform="matrix(0.975345,0,0,0.975345,-15.410451,-65.055512)"
   id="g18">
        <path
   d="m 71.5,152.5 1,0.3 h 0.1 l 2,-1 c 0.7,-0.4 1.3,-0.6 2,-0.6 h 27.6 v 37 l -0.2,0.6 c -0.1,0.1 -0.3,0.3 -0.4,0.3 l -1.3,0.8 -0.1,0.1 v 0.9 h 14.7 V 190 l -1.5,-0.9 -0.5,-0.4 v -37.5 h 24.5 c 1,0.1 1.3,0.4 1.3,0.6 v 1 h 0.9 l 7,-8.6 H 78.1 Z m 2.4,17.7 -0.1,0.3 H 75 l 6.9,-8.6 H 33.2 l -4.6,6.8 h 44 c 1.1,0.1 1.4,0.4 1.4,0.6 v 0.1 z m 14.4,13.4 c -0.4,0.3 -0.8,0.4 -1,0.5 l -33.9,0.1 c -7.9,0 -13.8,-1 -17.6,-3 -5.9,-3.1 -8.8,-7.5 -8.8,-13.5 0,-2.7 0.8,-5.3 2.3,-7.6 2.9,-4.3 7.4,-7.1 13.5,-8.2 1.7,-0.3 3,-0.5 4,-0.6 1.8,-0.1 3.9,-0.1 6.2,-0.1 h 10.5 c 1.1,0.1 1.4,0.4 1.4,0.6 v 0.1 l -0.1,0.5 -0.1,0.3 h 1 l 7,-8.5 H 53 c -4.8,0 -8.5,0.2 -11.1,0.5 -1.4,0.2 -2.7,0.4 -3.9,0.7 -3.3,0.7 -6.6,2 -9.8,3.8 -5,2.8 -8.6,6.4 -10.7,10.8 -1.2,2.4 -1.7,5.2 -1.7,8.1 0,7.5 4,13.5 12,17.8 3.7,2 7.7,3.4 12.1,4.1 3.3,0.5 7.9,0.8 13.6,0.8 h 31.4 l 7,-8.6 h -1.5 z m 63.8,-38.3 1.4,0.9 c 0.5,0.3 0.7,0.6 0.7,0.9 v 41.1 l -0.2,0.7 c -0.1,0.1 -0.3,0.3 -0.5,0.4 l -1.3,0.8 -0.1,0.1 v 0.9 h 14.6 v -0.9 l -1.3,-0.9 c -0.3,-0.2 -0.4,-0.3 -0.4,-0.4 l -0.1,-41.8 0.2,-0.6 0.4,-0.3 1.1,-0.8 0.1,-0.1 v -0.9 h -14.6 z m 107.8,5.5 7.1,7.5 8,8.1 h -13.3 l -6.6,7.2 0.8,0.4 0.1,0.1 1.6,-0.8 c 0.2,-0.1 0.4,-0.2 0.5,-0.2 h 23.1 l 14.8,15.6 c 0.1,0.1 0.2,0.1 0.2,0.3 l 0.2,0.5 c 0,0.2 -0.4,0.5 -1.8,0.5 h -0.3 v 1 h 16 L 266,144.4 Z m 124.1,11.8 -0.3,0.1 0.3,-0.1 c -1.8,-5.6 -5.8,-10.2 -12.1,-13.6 -5.6,-3.1 -13.8,-4.7 -24.5,-4.7 h -41.2 v 0.9 l 1.4,0.9 c 0.2,0.2 0.4,0.3 0.4,0.4 v 4.6 h 39.4 c 8.1,0 14,1.1 17.6,3.2 5.7,3.4 8.6,7.8 8.6,13.4 0,2.9 -0.7,5.4 -2.2,7.7 -1.5,2.3 -3.7,4.2 -6.7,5.7 -3.8,2 -9.7,3 -17.5,3 h -21 v -30.5 h -10.8 l 0.1,34.6 -0.2,0.6 c -0.1,0.1 -0.2,0.2 -0.4,0.4 l -1.2,0.8 -0.1,0.1 v 0.9 h 33.6 c 6.6,0 11.6,-0.4 15.2,-1.1 4.9,-1 9.2,-2.7 12.9,-5.2 3.7,-2.5 6.4,-5.4 7.9,-8.6 1.1,-2.4 1.7,-5 1.7,-7.7 -0.1,-2.1 -0.4,-4 -0.9,-5.8 m -147.9,27.3 c -0.7,-0.1 -0.9,-0.3 -1,-0.5 l 28.7,-29.9 -6.1,-6.5 -36.3,38 h 15.8 v -1 H 237 c -0.4,0 -0.7,0 -0.9,-0.1 m -13.9,-4.4 0.5,-0.5 10.4,-11.2 -0.1,-26.8 0.1,-0.5 0.4,-0.4 1.3,-0.8 0.1,-0.1 v -0.9 h -14.7 v 0.9 l 1.4,0.9 c 0.5,0.3 0.6,0.6 0.6,0.9 v 14.2 H 191 l -6.6,8.3 1,0.3 h 0.1 l 2,-1.2 c 0.4,-0.2 0.8,-0.4 1,-0.5 0.2,-0.1 0.5,-0.1 0.9,-0.1 H 222 Z m -37.9,3.3 -0.1,-41.7 0.2,-0.5 c 0.1,-0.1 0.2,-0.2 0.5,-0.3 l 1.3,-0.8 0.1,-0.1 v -0.9 h -14.7 v 0.9 l 1.4,0.9 c 0.2,0.2 0.4,0.3 0.4,0.4 l 0.1,41.6 -0.2,0.7 c -0.1,0.1 -0.2,0.3 -0.4,0.4 l -1.3,0.8 -0.1,0.1 v 0.9 h 14.7 v -0.9 l -1.4,-0.9 c -0.3,-0.4 -0.5,-0.5 -0.5,-0.6 m 55.2,-67.8 9.9,9.9 9.9,-9.9 -6.4,-6.4 7.8,-8.3 V 68 l -0.6,-0.1 c 0,0 -0.6,1.3 -3.3,4.2 -1.6,1.7 -2.4,2.3 -2.9,2.6 -0.3,0.2 -0.7,0.3 -0.7,0.8 V 76 c 0.2,2 2.5,1.1 2.7,4.2 0.1,1.1 0.1,4.1 0.1,7.7 0,6.6 -0.1,15.1 -0.1,16.2 l -6.7,6.9 -6.7,-6.9 c 0,-1.1 -0.1,-9.6 -0.1,-16.2 0,-3.6 0,-6.6 0.1,-7.7 0.1,-3.1 2.4,-2.3 2.7,-4.2 v -0.5 c 0,-0.4 -0.3,-0.6 -0.7,-0.7 -0.4,-0.3 -1.3,-0.9 -2.9,-2.6 -2.7,-2.9 -3.2,-4.2 -3.3,-4.2 H 238 v 39 l 7.8,7.7 z m 14.5,0 -4.7,4.7 -4.7,-4.7 4.7,-4.7 z m 20.7,-7.1 c 0,0 -0.1,-13.7 -0.1,-23.8 0,-5 0,-9.2 0.1,-10.3 0.2,-3.1 3.1,-2.2 3.3,-4.2 v -0.5 c 0,-0.5 -0.4,-0.6 -0.8,-0.8 -0.5,-0.3 -1.6,-0.9 -3.6,-2.6 -3.3,-2.9 -4.1,-4.2 -4.1,-4.1 L 269,66.7 v 47.5 h 5.7 z m -129.4,5.6 c 0,0.1 1.4,5.1 8.3,5.1 h 0.4 c 7.2,-0.2 9.1,-5.3 9.1,-5.4 V 98.4 c 0,-1 -0.2,-4.8 -3.7,-4.8 h -31.8 v -0.8 c 0.1,-3.1 2.3,-2.3 2.5,-4.2 v -0.5 c 0,-0.1 0,-0.1 -0.1,-0.3 -0.5,-0.3 -0.3,0 -0.8,-0.3 -0.4,-0.2 -1.2,-0.8 -2.5,-2.3 -2.6,-2.9 -3.2,-3.3 -3.2,-3.4 L 123,81.5 v 17.3 h 31.6 c 0.8,0 2.6,0.2 2.6,2.6 V 116 c 0,0 0,3.4 -3.4,3.4 -1.8,0 -3,-0.7 -3.8,-1.4 -0.8,-0.7 -1.2,-1.4 -1.2,-1.4 v -8.2 H 123 v 6 h 22.2 v 5.1 z m 65.6,-4.2 v 0.9 c 0,1.5 0.3,4.4 2.7,5.3 0,0 0.8,0.5 2.1,0.5 0.8,0 1.8,-0.2 2.7,-0.8 l 0.3,-0.2 -0.3,-0.3 c -1.4,-1.1 -1.7,-4.1 -1.7,-5.7 v -0.8 h 15 V 82.1 l -0.5,1 c 0,0 -0.7,1.3 -3.9,4.1 -1.9,1.7 -2.9,2.3 -3.4,2.6 -0.4,0.2 -0.8,0.3 -0.8,0.8 v 0.5 c 0.3,2 3.1,1.2 3.2,4.2 0.1,1.5 0.1,10.1 0.1,10.1 v 3.2 h -9.6 V 107 c 0,-3.6 -1.2,-11 -9.8,-11 h -0.5 c -2.8,0.1 -5.3,0.1 -7.4,0.1 -5.7,0 -8.8,-0.5 -9.6,-2 L 189.3,93.8 189,94 c -1,0.6 -1.4,1.8 -1.4,3.1 0,2 1.1,4.3 3.1,4.4 1.3,0.1 3.3,0.1 5.2,0.1 3.5,0 7,-0.1 7,-0.1 8.1,0.1 7.9,3.7 7.9,5 v 2 H 176 l 0.1,-4.1 -0.1,-37.6 -0.5,0.9 c 0,0 -0.8,1.3 -4.1,4.1 -2,1.7 -3,2.3 -3.6,2.6 -0.5,0.2 -0.8,0.3 -0.8,0.8 v 0.5 c 0.3,2 3.2,1.2 3.3,4.2 0.2,2.3 0.2,16.1 0.2,24 v 5.5 l 0.1,4.7 h 40.2 v 1.2 z m 20.4,-37.6 -0.2,-0.2 -4.1,-4.2 -4.4,4.4 4.4,4.4 z m -9.6,0 -0.2,-0.2 -4.1,-4.2 -4.3,4.4 4.3,4.4 z"
   style="fill:#a18b5d;fill-rule:nonzero"
   id="path2" />
        <path
   d="m 98,215.4 -0.4,1.1 c -1.4,3.9 -0.4,4 2,4.3 v 0.6 h -7 v -0.6 c 1.2,-0.4 1.7,-0.4 2.2,-1.6 l 5,-11.6 -0.2,-0.7 c 0.9,-0.3 1.6,-1 2.1,-1.7 h 0.4 l 4.2,11 c 1.5,3.7 1.3,4 3.6,4.7 v 0.6 h -7.7 v -0.6 c 2.2,-0.4 2.3,-0.8 1.1,-4 l -0.5,-1.4 H 98 Z m 4.4,-1.4 -2,-5.2 -1.9,5.2 z"
   style="fill:#a18b5d;fill-rule:nonzero"
   id="path4" />
        <path
   d="m 135.5,216.4 c 0,4.1 0.3,3.9 3,4.4 v 0.6 h -8.9 v -0.6 c 2.7,-0.5 3,-0.3 3,-4.4 v -5.3 c 0,-4.1 -0.3,-3.9 -3,-4.4 v -0.6 h 8.9 v 0.6 c -2.7,0.5 -3,0.3 -3,4.4 z"
   style="fill:#a18b5d;fill-rule:nonzero"
   id="path6" />
        <path
   d="m 161.4,210.4 c 0,-3 -0.1,-3.5 -3,-3.7 v -0.6 h 7 c 2.8,0 6.5,0 6.5,3.6 0,1.8 -1.3,3.1 -2.9,3.7 1.7,3.3 4,6.8 7.7,7.7 l -0.1,0.6 c -2,-0.1 -4.3,0.1 -6.1,-1.1 -1.1,-0.8 -2.4,-2.9 -3.1,-4.2 -1.1,-2 -0.9,-1.9 -3,-2.2 v 2.3 c 0,3.1 -0.1,4.1 3.5,4.4 v 0.6 h -9.4 v -0.6 c 2.7,-0.5 3,-0.3 3,-4.4 v -6.1 z m 3,3 c 2.1,-0.1 4.2,-1 4.2,-3.5 0,-2.3 -2.2,-3 -4.2,-3 z"
   style="fill:#a18b5d;fill-rule:nonzero"
   id="path8" />
        <path
   d="m 196.9,221.9 -0.9,-0.2 -3.7,-11.9 c -0.5,-1.6 -0.7,-2.7 -2.5,-3.1 v -0.6 h 7 v 0.6 c -2.4,0.6 -2,1.1 -1.2,3.7 l 2,6.4 2.8,-8.1 c -0.4,-1.3 -1.1,-1.8 -2.4,-2.1 V 206 h 7.2 v 0.6 c -1.9,0.5 -2.3,0.5 -1.4,3.5 l 2.1,6.9 0.8,-2.5 c 0.4,-1.3 1.7,-5.3 1.7,-6.4 0,-1.2 -1,-1.2 -2,-1.5 V 206 h 6.1 v 0.6 c -2,0.6 -2.3,1.1 -3.2,3.8 l -4,11.3 -0.9,-0.2 -3.5,-11.2 h -0.1 z"
   style="fill:#a18b5d;fill-rule:nonzero"
   id="path10" />
        <path
   d="m 231.4,215.4 -0.4,1.1 c -1.3,3.9 -0.4,4 2,4.3 v 0.6 h -7 v -0.6 c 1.2,-0.4 1.7,-0.4 2.3,-1.6 l 5,-11.6 -0.2,-0.7 c 0.9,-0.3 1.6,-1 2.1,-1.7 h 0.4 l 4.2,11 c 1.5,3.7 1.3,4 3.6,4.7 v 0.6 h -7.6 v -0.6 c 2.2,-0.4 2.3,-0.8 1.1,-4 l -0.5,-1.4 h -5 z m 4.5,-1.4 -2.1,-5.2 -1.9,5.2 z"
   style="fill:#a18b5d;fill-rule:nonzero"
   id="path12" />
        <path
   d="m 269.6,216.4 c 0,3.1 -0.1,4.1 3.3,4.4 v 0.6 h -9.5 v -0.6 c 3,-0.5 3.3,-0.3 3.3,-4.4 v -1 l -2.5,-5.1 c -1,-2.1 -1.3,-3 -3.8,-3.5 v -0.6 h 7.8 v 0.6 c -1.6,0.4 -2.3,0.2 -1,3 l 2,4.1 1.2,-2.5 c 1.9,-3.9 1.5,-4.1 -0.5,-4.6 v -0.6 h 6.6 v 0.6 c -1.9,0.4 -2.8,0.9 -3.7,2.6 l -2.8,4.6 -0.4,0.9 z"
   style="fill:#a18b5d;fill-rule:nonzero"
   id="path14" />
        <path
   d="m 306.8,210.7 h -0.7 c -0.4,-1.9 -1,-3.9 -3.3,-3.9 -1.4,0 -2.3,1 -2.3,2.4 0,3.7 7.4,3.4 7.4,8.1 0,3.2 -3.1,4.6 -6,4.6 -1.6,0 -3.2,-0.4 -4.6,-1.2 l -0.7,-4.5 0.7,-0.1 c 0.7,2.2 2.4,4.7 5,4.7 1.5,0 2.6,-1 2.6,-2.4 0,-3.8 -7.4,-3.5 -7.4,-7.9 0,-3 2.9,-4.7 5.6,-4.7 1.4,0 2.7,0.3 3.8,1 z"
   style="fill:#a18b5d;fill-rule:nonzero"
   id="path16" />
    </g>
</svg>
