<?xml version="1.0" encoding="UTF-8" standalone="no"?>
<svg
   xmlns:dc="http://purl.org/dc/elements/1.1/"
   xmlns:cc="http://creativecommons.org/ns#"
   xmlns:rdf="http://www.w3.org/1999/02/22-rdf-syntax-ns#"
   xmlns:svg="http://www.w3.org/2000/svg"
   xmlns="http://www.w3.org/2000/svg"
   xmlns:xlink="http://www.w3.org/1999/xlink"
   xmlns:sodipodi="http://sodipodi.sourceforge.net/DTD/sodipodi-0.dtd"
   xmlns:inkscape="http://www.inkscape.org/namespaces/inkscape"
   version="1.1"
   id="layer"
   x="0px"
   y="0px"
   viewBox="0 0 599.91547 148.3"
   xml:space="preserve"
   sodipodi:docname="malaysia-airlines-vector-logo.svg"
   width="599.91547"
   height="148.3"
   inkscape:version="1.0.1 (0767f8302a, 2020-10-17)"><metadata
   id="metadata55"><rdf:RDF><cc:Work
       rdf:about=""><dc:format>image/svg+xml</dc:format><dc:type
         rdf:resource="http://purl.org/dc/dcmitype/StillImage" /></cc:Work></rdf:RDF></metadata><defs
   id="defs53" /><sodipodi:namedview
   pagecolor="#ffffff"
   bordercolor="#666666"
   borderopacity="1"
   objecttolerance="10"
   gridtolerance="10"
   guidetolerance="10"
   inkscape:pageopacity="0"
   inkscape:pageshadow="2"
   inkscape:window-width="1920"
   inkscape:window-height="1016"
   id="namedview51"
   showgrid="false"
   inkscape:zoom="1.3220859"
   inkscape:cx="300"
   inkscape:cy="73.7"
   inkscape:window-x="0"
   inkscape:window-y="27"
   inkscape:window-maximized="1"
   inkscape:current-layer="layer" />
<style
   type="text/css"
   id="style2">
	.st0{fill:#002856;}
	.st1{clip-path:url(#SVGID_2_);fill:#DB0F18;}
</style>
<g
   id="g6"
   transform="translate(-26,-252.3)">
	<path
   class="st0"
   d="m 625.8,305.5 c -0.1,0 -3.4,-0.2 -3.4,-0.2 -13.4,-1 -13.1,-13.1 -13.1,-13.1 0.2,-14.9 -8.3,-38.5 -41.7,-39.9 h -57.8 l -0.8,2.9 h 48.5 c 4.9,0.1 8.4,3.7 6.7,9.5 l -8.7,31.6 c -3.3,9.5 -12,9 -12,9 -8.9,-0.8 -6.4,-9.2 -6.4,-9.2 l 4,-14.5 c 1.2,-4.9 -2.2,-7.2 -5.3,-7.3 h -32.1 l -0.8,2.9 h 13.7 c 5,0.1 6.1,3.9 5.2,7.3 0,0 -1.7,6 -3.7,13.5 -2,7.3 -8.7,7.5 -9.7,7.5 H 495 l -0.9,3.4 h 12.7 c 1.5,0 8.3,0.3 6.3,7.6 -2.1,7.6 -3.7,13.5 -3.7,13.5 -1,3.4 -4.1,7.1 -9.3,7.3 h -13.8 l -0.8,2.9 h 32.1 c 3.1,-0.1 7.9,-2.4 9.4,-7.4 l 4,-14.4 c 0,0 2.1,-8.5 11.4,-9.2 0,0 9,-0.5 7,9 l -8.7,31.6 c -1.6,5.9 -7,9.5 -12,9.5 h -48.5 l -0.8,2.9 h 57.9 c 34.2,-1.4 55.7,-25.1 63.7,-39.9 0,0 6.4,-12.1 20.3,-13.1 l 3.4,-0.2 c 0,0 0.2,0 0.3,-0.2 0.2,-0.6 0.8,-2.9 0.8,-3 0.2,-0.2 0.1,-0.3 0,-0.3"
   id="path4" />
</g>
<g
   id="g16"
   transform="translate(-26,-252.3)">
	<defs
   id="defs9">
		<path
   id="SVGID_1_"
   d="m 509.8,252.3 -0.8,2.9 h 48.5 c 4.9,0.1 8.4,3.7 6.7,9.5 l -8.7,31.6 c -3.3,9.5 -12,9 -12,9 -8.9,-0.8 -6.4,-9.2 -6.4,-9.2 l 4,-14.5 c 1.2,-4.9 -2.2,-7.2 -5.3,-7.3 h -32.1 l -0.8,2.9 h 13.7 c 5,0.1 6.1,3.9 5.2,7.3 0,0 -1.7,6 -3.7,13.5 -2,7.3 -8.7,7.5 -9.7,7.5 H 495 l -0.9,3.4 h 12.7 c 1.5,0 8.3,0.3 6.3,7.6 -2.1,7.6 -3.7,13.5 -3.7,13.5 -1,3.4 -4.1,7.1 -9.3,7.3 h -13.8 l -0.8,2.9 h 32.1 c 3.1,-0.1 7.9,-2.4 9.4,-7.4 l 4,-14.4 c 0,0 2.1,-8.5 11.4,-9.2 0,0 9,-0.5 7,9 l -8.7,31.6 c -1.6,5.9 -7,9.5 -12,9.5 h -48.5 l -0.8,2.9 h 57.9 c 34.2,-1.4 55.7,-25 63.7,-39.9 0,0 6.4,-12.1 20.3,-13.1 l 3.4,-0.2 c 0,0 0.2,0 0.3,-0.2 0.2,-0.6 0.8,-2.9 0.8,-3 0,-0.1 0,-0.2 -0.1,-0.2 -0.1,0 -3.4,-0.2 -3.4,-0.2 -13.4,-1 -13.1,-13.1 -13.1,-13.1 0.2,-14.8 -8.3,-38.5 -41.7,-39.9 h -57.7 z" />
	</defs>
	<clipPath
   id="SVGID_2_">
		<use
   xlink:href="#SVGID_1_"
   style="overflow:visible"
   id="use11"
   x="0"
   y="0"
   width="100%"
   height="100%" />
	</clipPath>
	<rect
   x="492.5"
   y="249.5"
   class="st1"
   width="135.7"
   height="57.700001"
   clip-path="url(#SVGID_2_)"
   id="rect14" />
</g>
<path
   class="st0"
   d="M 81.5,58 C 79.7,55.7 76.2,53 69.7,53 H 15.5 L 0,109.9 H 15.2 L 27.3,65.5 H 40.9 L 28.8,109.9 H 44 L 56.1,65.5 H 62 c 2.4,0 4.1,0.6 5.1,1.8 1.4,1.8 1,4.4 0.6,5.8 l -10,36.8 H 72.9 L 83.7,70.4 C 84.9,65.8 84.1,61.3 81.5,58"
   id="path18" />
<path
   class="st0"
   d="M 144.6,58.4 C 141.9,55 137.2,53 131.9,53 H 99 l -3.2,11.9 h 28.8 c 3,0 5.1,0.7 6.2,2.1 1.1,1.4 1.3,3.5 0.5,6.3 l -0.6,2.2 h -24.1 c -10.9,0 -19.4,6.5 -22.3,17.1 -1.4,5.3 -0.9,9.7 1.5,12.8 2.3,2.9 6.4,4.5 11.6,4.5 h 39.1 l 10,-36.5 c 1.6,-6.3 1,-11.4 -1.9,-15 M 124.4,98 h -18.5 c -1.8,0 -4.2,-0.1 -5.3,-1.5 -0.7,-0.8 -0.8,-2.1 -0.3,-3.8 1.3,-4.8 5.2,-5.5 8.8,-5.5 h 18.3 z"
   id="path20" />
<path
   class="st0"
   d="M 232.5,58.4 C 229.8,55 225.1,53 219.8,53 h -32.9 l -3.2,11.9 h 28.8 c 3,0 5.1,0.7 6.2,2.1 1.1,1.4 1.3,3.5 0.5,6.3 l -0.6,2.2 h -24.1 c -10.9,0 -19.4,6.5 -22.3,17.1 -1.5,5.3 -0.9,9.7 1.5,12.8 2.3,2.9 6.3,4.5 11.6,4.5 h 39.1 l 10,-36.5 c 1.6,-6.3 1,-11.4 -1.9,-15 M 212.4,98 h -18.5 c -1.8,0 -4.2,-0.1 -5.3,-1.5 -0.7,-0.8 -0.8,-2.1 -0.3,-3.8 1.3,-4.8 5.2,-5.5 8.8,-5.5 h 18.3 z"
   id="path22" />
<path
   class="st0"
   d="m 286.3,53 -12.1,44.4 h -15 c -2.4,0 -4.1,-0.6 -5.1,-1.8 -1.4,-1.8 -0.9,-4.5 -0.6,-5.9 l 10,-36.7 h -15.2 l -10.4,38.1 c -1.6,5.9 -1.1,10.5 1.5,13.7 3.3,4.2 9.3,5.1 13.8,5.1 h 17.6 l -1.6,5.6 c -0.9,3.4 -5,7.1 -10.5,7.1 h -27.9 l -3.2,11.9 H 260 c 9.1,0 21.4,-7.9 24.5,-19.1 l 17,-62.3 h -15.2 z"
   id="path24" />
<path
   class="st0"
   d="m 354.5,80 c -2.4,-2.9 -6.4,-4.5 -11.6,-4.5 h -15.7 c -1.9,0 -4.4,-0.1 -5.5,-1.5 -0.6,-0.8 -0.7,-2 -0.3,-3.6 1.3,-4.8 5.3,-5.5 9,-5.5 h 30.3 L 363.9,53 h -36.3 c -10.9,0 -19.4,6.6 -22.3,17.1 -1.4,5.3 -0.9,9.7 1.5,12.7 2.3,2.9 6.4,4.5 11.6,4.5 h 15.7 c 1.8,0 4.4,0.2 5.5,1.5 0.6,0.8 0.8,2.1 0.3,3.7 -1.3,4.8 -5.3,5.5 -9,5.5 h -33.3 l -3.2,11.9 h 39.3 c 10.9,0 19.4,-6.6 22.3,-17.1 1.5,-5.3 1,-9.7 -1.5,-12.8"
   id="path26" />
<polygon
   class="st0"
   points="399.7,362.2 415.2,305.3 400,305.3 384.4,362.2 "
   id="polygon28"
   transform="translate(-26,-252.3)" />
<path
   class="st0"
   d="M 445.2,58.4 C 442.5,55 437.8,53 432.5,53 h -32.9 l -3.2,11.9 h 28.8 c 3,0 5.1,0.7 6.2,2.1 1.1,1.4 1.3,3.5 0.5,6.3 l -0.6,2.2 h -24.1 c -10.9,0 -19.4,6.5 -22.3,17.1 -1.5,5.3 -0.9,9.7 1.5,12.8 2.3,2.9 6.4,4.5 11.6,4.5 h 39 l 10,-36.5 c 1.7,-6.3 1.1,-11.4 -1.8,-15 M 425,98 h -18.5 c -1.8,0 -4.2,-0.1 -5.3,-1.5 -0.7,-0.8 -0.8,-2.1 -0.3,-3.8 1.3,-4.8 5.2,-5.5 8.8,-5.5 H 428 Z"
   id="path30" />
<polygon
   class="st0"
   points="186.5,362.2 206.2,289.9 191,289.9 171.2,362.2 "
   id="polygon32"
   transform="translate(-26,-252.3)" />
<path
   class="st0"
   d="m 312.5,124.4 c -1.3,-1.7 -3.7,-1.9 -4.4,-1.9 h -16.5 l -1,3.6 h 15.1 c 1.2,0 2.2,0.4 2.8,1.1 0.4,0.6 0.4,1.5 0.2,2.3 -0.2,0.8 -0.9,3.1 -0.9,3.1 h -11.5 c -5.4,0 -9.2,2.7 -10.4,7.9 -0.6,2.4 0,4.2 1,5.5 1,1.4 3.1,2.1 5.8,2.1 h 15.4 l 4.9,-18.2 c 0.6,-2.3 0.5,-4.2 -0.5,-5.5 m -7.9,20.2 h -10 c -1.9,0 -3.1,-0.4 -3.7,-1.2 -0.5,-0.7 -0.7,-1.6 -0.4,-2.9 0.8,-2.8 2.9,-4.2 6.2,-4.2 h 10.2 z"
   id="path34" />
<polygon
   class="st0"
   points="345.4,374.9 338.4,400.5 342.8,400.5 349.8,374.9 "
   id="polygon36"
   transform="translate(-26,-252.3)" />
<polygon
   class="st0"
   points="372.2,367.8 363.3,400.5 367.7,400.5 376.6,367.8 "
   id="polygon38"
   transform="translate(-26,-252.3)" />
<polygon
   class="st0"
   points="379,374.9 372.1,400.5 376.5,400.5 383.4,374.9 "
   id="polygon40"
   transform="translate(-26,-252.3)" />
<path
   class="st0"
   d="m 375.1,122.6 h -13.3 l -6.9,25.6 h 4.4 l 6,-22 h 8.2 c 1.8,0 3,0.4 3.7,1.3 0.8,1.1 0.5,2.6 -0.1,4.7 l -4.3,15.9 h 4.5 l 4.6,-17.2 c 0.8,-2.8 0.5,-4.9 -0.6,-6.3 -1.1,-1.3 -3.2,-2 -6.2,-2"
   id="path42" />
<path
   class="st0"
   d="m 389.7,133.1 c 1.1,-2.9 4.1,-6.9 9.4,-6.9 h 8.9 l 1,-3.6 h -10.5 c -7.6,0 -12.7,6.5 -14.4,12.9 -1.1,4.1 -0.8,7.7 1,10 1.4,1.8 3.5,2.7 6.4,2.7 H 402 l 1,-3.6 h -9.1 c -2.2,0 -3.9,-0.5 -4.8,-1.6 -1.1,-1.3 -1.2,-3.6 -0.6,-5.9 l 0.1,-0.2 h 15.9 l 1,-3.5 h -15.9 z"
   id="path44" />
<path
   class="st0"
   d="m 433.7,126.3 1,-3.6 h -14 c -7.2,0 -9.5,4.6 -10.3,7.4 -0.5,2 -0.2,3.7 0.6,4.8 1,1.3 2.6,2 5.4,2 h 6.9 c 4.2,0 3.5,3.1 3.2,4.1 -1,3.2 -4.5,3.5 -8.1,3.5 h -12 l -1,3.6 h 16.9 c 4.3,0 7.9,-2.7 9,-7.3 0.5,-2.2 0.1,-4.1 -1,-5.4 -1,-1.2 -2.6,-2.1 -5.5,-2.1 h -5.9 c -0.6,0 -2.5,0.1 -3.2,-1 -0.4,-0.7 -0.5,-1.4 -0.1,-2.5 0.9,-3.1 3.9,-3.6 5.2,-3.6 h 12.9 z"
   id="path46" />
<path
   class="st0"
   d="m 335.4,122.5 c -7.7,0 -9.2,7.1 -9.3,7.7 -0.1,0.5 -4.9,18.1 -4.9,18.1 h 4.4 c 0,0 4.6,-16.9 4.7,-17.4 0.3,-0.8 1.5,-4.6 5.8,-4.6 h 3.7 l 1,-3.7 h -5.4 z"
   id="path48" />
</svg>
