<?xml version="1.0" encoding="UTF-8" standalone="no"?>
<svg
   xmlns:dc="http://purl.org/dc/elements/1.1/"
   xmlns:cc="http://creativecommons.org/ns#"
   xmlns:rdf="http://www.w3.org/1999/02/22-rdf-syntax-ns#"
   xmlns:svg="http://www.w3.org/2000/svg"
   xmlns="http://www.w3.org/2000/svg"
   xmlns:sodipodi="http://sodipodi.sourceforge.net/DTD/sodipodi-0.dtd"
   xmlns:inkscape="http://www.inkscape.org/namespaces/inkscape"
   clip-rule="evenodd"
   fill-rule="evenodd"
   stroke-linejoin="round"
   stroke-miterlimit="1.41421"
   viewBox="0 0 400 113.23285"
   version="1.1"
   id="svg120"
   sodipodi:docname="SU.svg"
   width="400"
   height="113.23285"
   inkscape:version="1.0.1 (0767f8302a, 2020-10-17)">
  <metadata
     id="metadata126">
    <rdf:RDF>
      <cc:Work
         rdf:about="">
        <dc:format>image/svg+xml</dc:format>
        <dc:type
           rdf:resource="http://purl.org/dc/dcmitype/StillImage" />
        <dc:title></dc:title>
      </cc:Work>
    </rdf:RDF>
  </metadata>
  <defs
     id="defs124" />
  <sodipodi:namedview
     pagecolor="#ffffff"
     bordercolor="#666666"
     borderopacity="1"
     objecttolerance="10"
     gridtolerance="10"
     guidetolerance="10"
     inkscape:pageopacity="0"
     inkscape:pageshadow="2"
     inkscape:window-width="1920"
     inkscape:window-height="1016"
     id="namedview122"
     showgrid="false"
     inkscape:zoom="2.155"
     inkscape:cx="200"
     inkscape:cy="56.617"
     inkscape:window-x="0"
     inkscape:window-y="27"
     inkscape:window-maximized="1"
     inkscape:current-layer="svg120" />
  <linearGradient
     id="a"
     gradientTransform="matrix(20.238,18.873,-18.873,20.238,-3347.19,3626.937)"
     gradientUnits="userSpaceOnUse"
     x1="0"
     x2="1"
     y1="0"
     y2="0">
    <stop
       offset="0"
       stop-color="#c4161c"
       id="stop2" />
    <stop
       offset=".01"
       stop-color="#c4161c"
       id="stop4" />
    <stop
       offset=".3"
       stop-color="#c93627"
       id="stop6" />
    <stop
       offset=".5"
       stop-color="#ebb39e"
       id="stop8" />
    <stop
       offset=".72"
       stop-color="#c93627"
       id="stop10" />
    <stop
       offset="1"
       stop-color="#c4161c"
       id="stop12" />
  </linearGradient>
  <linearGradient
     id="b"
     gradientTransform="matrix(12.207,11.383,-11.383,12.207,-1859.49,2038.727)"
     gradientUnits="userSpaceOnUse"
     x1="0"
     x2="1"
     y1="0"
     y2="0">
    <stop
       offset="0"
       stop-color="#00529b"
       id="stop15" />
    <stop
       offset=".11"
       stop-color="#00529b"
       id="stop17" />
    <stop
       offset=".5"
       stop-color="#778ec1"
       id="stop19" />
    <stop
       offset=".52"
       stop-color="#728abf"
       id="stop21" />
    <stop
       offset=".73"
       stop-color="#3c69aa"
       id="stop23" />
    <stop
       offset=".88"
       stop-color="#00589f"
       id="stop25" />
    <stop
       offset=".96"
       stop-color="#00529b"
       id="stop27" />
    <stop
       offset="1"
       stop-color="#00529b"
       id="stop29" />
  </linearGradient>
  <linearGradient
     id="c"
     gradientTransform="matrix(7.229,4.517,-4.517,7.229,-663.784,1216.767)"
     gradientUnits="userSpaceOnUse"
     x1="0"
     x2="1"
     y1="0"
     y2="0">
    <stop
       offset="0"
       stop-color="#c4161c"
       id="stop32" />
    <stop
       offset=".01"
       stop-color="#c4161c"
       id="stop34" />
    <stop
       offset=".49"
       stop-color="#c93627"
       id="stop36" />
    <stop
       offset="1"
       stop-color="#ebb39e"
       id="stop38" />
  </linearGradient>
  <linearGradient
     id="d"
     gradientTransform="matrix(21.282,16.708,-16.708,21.282,-2219.17,2918.687)"
     gradientUnits="userSpaceOnUse"
     x1="0"
     x2="1"
     y1="0"
     y2="0">
    <stop
       offset="0"
       stop-color="#fff"
       id="stop41" />
    <stop
       offset=".3"
       stop-color="#fff"
       id="stop43" />
    <stop
       offset=".51"
       stop-color="#d4d9ec"
       id="stop45" />
    <stop
       offset=".7"
       stop-color="#fff"
       id="stop47" />
    <stop
       offset="1"
       stop-color="#fff"
       id="stop49" />
  </linearGradient>
  <path
     d="m 14.406,79.101 -3.118,-1.364 12.933,-1.576 c 0.23,0.373 0.453,0.703 0.714,1.053 l -10.53,1.887 z m 34.715,0 3.122,-1.447 -12.86,-1.533 c -0.113,0.413 -0.454,0.743 -0.685,1.093 l 10.424,1.887 z m -1.876,0.216 -3.919,1.313 -5.569,-1.69 -0.483,-0.151 c 0.186,-0.146 0.337,-0.293 0.483,-0.491 0.235,-0.183 0.423,-0.45 0.643,-0.643 l 8.845,1.663 z m 10.341,-3.648 -3.579,1.659 -14.289,-1.659 c 0.117,-0.334 0.23,-0.674 0.336,-1.02 z m 1.277,-0.496 4.666,-2.962 H 38.256 c 0,1.056 -0.153,1.961 -0.5,2.742 -0.969,2.518 -3.412,3.725 -5.858,3.689 -2.402,-0.07 -4.852,-1.313 -5.942,-3.61 -0.381,-0.836 -0.603,-1.722 -0.603,-2.82 H 0 l 4.626,2.962 19.37,-1.002 c 0.374,1.383 1.061,2.591 1.96,3.481 1.546,1.626 3.756,2.522 5.942,2.522 2.146,0.045 4.322,-0.743 5.858,-2.476 0.833,-0.9 1.471,-2.067 1.851,-3.469 l 19.255,0.944 z m -21.107,7.681 0.5,0.904 -0.5,0.228 -1.31,0.603 -1.502,-2.976 c -0.943,0.33 -1.986,0.519 -3.046,0.559 -1.13,0.041 -2.301,-0.118 -3.316,-0.45 l -1.272,2.867 c -0.418,0.032 -0.981,0 -1.354,-0.27 -0.193,-0.116 -0.381,-0.3 -0.456,-0.56 l 0.456,-0.758 1.09,-1.953 c -0.343,-0.23 -0.64,-0.38 -0.947,-0.679 l 0.906,-1.09 c 1.549,0.943 3.237,1.462 4.895,1.462 1.657,0.041 3.304,-0.487 4.847,-1.576 l 1.01,0.3 0.423,0.156 -0.423,0.334 c -0.296,0.299 -0.557,0.599 -1.041,0.863 l 1.041,2.036 z m 0,-15.39 c 0.98,1.164 1.701,2.602 2.078,4.255 H 38.219 C 38.102,71.232 37.951,70.74 37.755,70.29 36.677,67.432 34.451,65.402 31.897,63.709 l -0.98,-0.603 0.98,0.339 c 2.326,0.939 4.395,2.22 5.858,4.019 z m -4.362,10.613 c 0.425,-0.074 1.059,-0.304 1.55,-0.68 l -2.564,-5.076 2.672,-1.276 -2.251,-1.952 -0.903,0.409 -3.878,1.763 1.138,2.557 1.835,-0.822 2.401,5.076 z m -6.988,0.712 c -0.153,-0.11 -0.307,-0.257 -0.45,-0.376 -0.301,-0.262 -0.57,-0.529 -0.746,-0.79 l -8.842,1.668 3.763,1.264 z m -2.41,-3.119 c -0.149,-0.334 -0.257,-0.674 -0.374,-1.02 l -17.678,1.02 3.573,1.727 z"
     fill="#00529b"
     id="path52" />
  <path
     d="m 135.074,104.659 c 5.831,0.919 17.001,2.361 30.68,2.661 13.652,0.344 29.701,-0.454 44.869,-2.72 15.166,-2.201 29.382,-5.898 39.477,-9.886 10.172,-3.832 15.86,-8.502 15.834,-8.52 0.055,0.028 -5.872,5.429 -16.647,10.065 -10.664,4.814 -25.721,9.43 -41.576,12.412 -15.838,3.065 -32.45,4.465 -45.964,4.548 -13.51,0.157 -24.007,-1.061 -27.685,-1.638 -12.712,-1.894 -21.946,-5.237 -27.582,-8.457 -5.689,-3.243 -7.584,-6.173 -6.991,-6.743 0.629,-0.676 3.462,0.692 9.199,2.467 5.743,1.799 14.485,4.044 26.387,5.813 z"
     fill="#f47920"
     id="path54" />
  <path
     d="m 377.918,8.629 -2.165,0.275 -1.389,0.132 c -2.604,0.226 -6.534,0.56 -10.003,2.769 -3.44,2.195 -7.382,6.78 -10.136,10.308 -29.872,5.002 -46.249,22.701 -57.086,34.427 l -6.793,7.928 1.138,-0.354 c 20.357,-18.783 38.512,-28.829 55.512,-30.708 l 0.252,-0.028 2.264,-2.954 4.764,-6.248 c 1.959,-1.765 4.669,-2.388 8.659,-2.844 l 6.964,-0.445 8.241,-0.578 c 4.708,-0.63 8.752,-1.715 14.302,-9.339 L 400,0.768 399.114,0 c -6.935,6.87 -14.509,7.803 -21.195,8.626 z m 0.143,1.166 c 5.792,-0.712 12.219,-1.741 18.421,-6.252 -2.238,3.023 -4.99,6.738 -4.99,6.738 -5.288,7.262 -8.933,8.256 -13.509,8.866 0,0.004 -8.135,0.568 -8.135,0.568 l -7.046,0.456 c -2.976,0.336 -5.141,0.969 -7.043,1.916 2.65,-3.335 6.165,-7.327 9.24,-9.288 3.22,-2.058 6.976,-2.374 9.463,-2.591 l 1.448,-0.143 2.15,-0.27 z m -24.754,13.73 c -0.535,0.69 -4.728,6.187 -4.728,6.187 l -1.974,2.578 c -14.523,1.672 -29.856,9.232 -46.599,22.906 10.58,-11.364 26.262,-26.779 53.301,-31.671 z m 22.602,-13.459 h 0.01 z"
     id="path56" />
  <path
     d="m 291.1,63.709 c 21.602,-15.788 33.216,-22.057 58.876,-22.286 l -5.528,7.456 c -1.041,2.212 -2.655,2.112 -4.355,2.01 -18.344,-0.146 -31.158,1.222 -53.443,17.405 z"
     fill="url(#a)"
     id="path58"
     style="fill:url(#a)" />
  <path
     d="m 291.086,63.684 c 21.739,-20.058 39.887,-29.093 55.846,-30.856 1.412,-1.869 6.286,-8.131 7.763,-10.216 -36.377,5.939 -52.459,30.559 -63.609,41.072 z"
     fill="#ffffff"
     id="path60" />
  <path
     d="m 292.203,62.536 c -0.431,0.413 -1.931,2.03 -2.362,2.416 12.757,-9.407 23.441,-19.199 50.05,-22.819 1.326,-1.502 5.196,-6.592 7.02,-9.306 -24.258,3.298 -40.123,16.841 -54.708,29.71 z"
     fill="url(#b)"
     id="path62"
     style="fill:url(#b)" />
  <path
     d="m 343.966,49.739 c 0.234,-0.822 0.807,-1.433 -1.89,-3.023 -3.173,-1.869 -4.27,-1.083 -3.568,-2.984 0.522,-1.443 7.337,-4.314 12.31,-2.629 0.001,10e-4 -4.412,5.114 -6.852,8.636 z"
     fill="url(#c)"
     id="path64"
     style="fill:url(#c)" />
  <path
     d="m 363.076,20.263 c -4.976,0.666 -8.114,1.906 -10.107,4.418 l -6.948,9.306 c 1.515,-1.354 6.095,-2.021 11.056,-2.149 l 0.695,0.014 0.632,-0.014 2.216,-0.07 c 7.037,-0.275 16.807,-1.268 22.511,-7.915 l 8.547,-11.818 1.023,-1.407 c -7.423,9.777 -24.361,8.932 -29.623,9.634 z"
     fill="#00529b"
     id="path66" />
  <path
     d="m 367.202,30.605 c -5.338,0.747 -11.443,0.969 -13.193,1.057 -2.991,0.132 -6.966,1.087 -8.066,2.42 -3.353,4.167 -6.563,8.052 -7.433,9.652 2.048,-1.893 8.787,-1.686 16.965,-2.063 8.169,-0.373 16.446,-3.905 22.973,-11.346 l 4.959,-6.853 c -3.32,4.259 -9.169,6.151 -16.205,7.134 z"
     fill="#c4161c"
     id="path68" />
  <path
     d="m 375.831,9.484 c -2.173,0.293 -7.075,0.215 -11.151,2.819 -4.084,2.604 -9.001,8.783 -11.418,12.036 2.246,-2.403 5.229,-3.087 9.606,-3.583 4.376,-0.505 10.698,-0.418 15.192,-1.025 4.317,-0.574 8.332,-1.441 13.905,-9.1 l 7.561,-10.207 c -7.838,7.763 -16.397,8.085 -23.696,9.06 z"
     fill="url(#d)"
     id="path70"
     style="fill:url(#d)" />
  <g
     fill="#00529b"
     id="g118"
     transform="translate(-80,-143.383)">
    <path
       d="m 134.759,190.635 v -7.806 h 14.708 v -4.101 h -14.708 v -7.107 h 15.503 v -4.103 h -26.403 v 27.264 h 27.261 v -4.147 z"
       id="path72" />
    <path
       d="m 167.067,194.782 v -23.16 h 6.405 c 1.95,0 3.752,0.146 5.397,1.244 1.196,0.851 1.948,2.062 1.948,3.565 0,1.254 -0.446,2.545 -2.096,3.591 -2.151,1.401 -5.898,1.594 -8.249,1.31 l -1.349,-0.161 10.856,13.611 h 12.596 l -10.303,-11.359 c 1.846,-0.202 4.805,-0.936 6.6,-2.089 2.149,-1.458 3.248,-3.608 3.248,-5.613 0,-2.246 -1.207,-4.69 -3.945,-6.297 -3.258,-1.847 -7.703,-1.902 -11.803,-1.902 h -20.253 v 27.262 h 10.948 v -0.001 z"
       id="path74" />
    <path
       d="m 255.086,179.173 v -7.551 h 15.905 v -4.103 h -26.798 v 27.264 h 10.893 v -11.506 h 14.705 v -4.103 h -14.705 z"
       id="path76" />
    <path
       d="m 274.943,167.518 v 27.264 h 27.012 v -4.147 h -16.058 v -23.116 h -10.954 z"
       id="path78" />
    <path
       d="m 381.417,167.518 h -34.453 v 4.103 h 11.752 v 23.16 h 10.955 v -23.16 h 11.745 v -4.103 z"
       id="path80" />
    <path
       d="m 323.759,166.726 c -5.101,0 -12.253,1.153 -17.056,4.593 -3.809,2.701 -5.601,6.563 -5.601,9.853 0,3.257 1.794,7.111 5.601,9.811 4.803,3.393 11.955,4.546 17.056,4.546 5.096,0 12.3,-1.153 17.097,-4.546 3.806,-2.701 5.56,-6.555 5.56,-9.811 0,-3.29 -1.754,-7.152 -5.56,-9.853 -4.797,-3.44 -12.001,-4.544 -17.097,-4.593 z m 0,25.506 c -2.705,0 -5.905,-0.602 -8.262,-3.555 -1.948,-2.398 -2.296,-5.155 -2.296,-7.506 0,-2.443 0.348,-5.149 2.296,-7.547 2.357,-3.009 5.557,-3.602 8.262,-3.602 2.743,0 5.905,0.593 8.29,3.602 1.957,2.398 2.311,5.104 2.311,7.547 0,2.351 -0.354,5.108 -2.311,7.506 -2.385,2.955 -5.547,3.555 -8.29,3.555 z"
       id="path82" />
    <path
       d="m 217.757,166.726 c -5.097,0 -12.246,1.153 -17.046,4.593 -3.809,2.701 -5.61,6.563 -5.61,9.853 0,3.257 1.802,7.111 5.61,9.811 4.8,3.393 11.951,4.546 17.046,4.546 5.096,0 12.304,-1.153 17.108,-4.546 3.795,-2.701 5.551,-6.555 5.551,-9.811 0,-3.29 -1.756,-7.152 -5.551,-9.853 -4.804,-3.44 -12.012,-4.544 -17.108,-4.593 z m 0,25.506 c -2.701,0 -5.904,-0.602 -8.251,-3.555 -1.949,-2.398 -2.303,-5.155 -2.303,-7.506 0,-2.443 0.354,-5.149 2.303,-7.547 2.347,-3.009 5.55,-3.602 8.251,-3.602 2.745,0 5.902,0.593 8.3,3.602 1.953,2.398 2.301,5.104 2.301,7.547 0,2.351 -0.348,5.108 -2.301,7.506 -2.398,2.955 -5.557,3.555 -8.3,3.555 z"
       id="path84" />
    <path
       d="m 85.448,194.782 4.304,-7.915 h 15.159 l 4.646,7.915 h 12.251 L 105.211,167.518 H 95.054 l -15.053,27.264 h 5.448 z m 6.301,-11.609 5.155,-9.499 h 0.151 l 5.597,9.499 z"
       id="path86" />
    <path
       d="m 194.726,216.628 -2.427,8.953 c -0.3,0.358 -0.767,0.658 -1.189,0.882 -0.654,0.354 -1.302,0.542 -1.9,0.542 -0.595,0 -1.122,-0.238 -1.364,-0.603 -0.176,-0.299 -0.351,-0.768 -0.117,-1.602 l 2.197,-8.172 h -2.256 l -2.127,7.878 c -0.18,0.717 -0.478,1.957 0.171,2.907 0.361,0.534 1.136,1.13 2.724,1.13 0.658,0 1.313,-0.116 2.146,-0.474 0.529,-0.308 1.116,-0.658 1.597,-1.014 l -0.352,1.248 h 2.01 l 3.155,-11.675 h -2.267 z"
       id="path88" />
    <path
       d="m 209.158,217.977 c -0.537,-0.708 -1.193,-1.061 -1.312,-1.125 -0.754,-0.403 -1.594,-0.474 -2.315,-0.474 -0.768,0 -1.719,0.07 -2.779,0.713 -0.774,0.541 -1.719,1.364 -2.069,2.732 -0.317,1.005 -0.189,1.773 0.171,2.252 0.412,0.537 1.125,0.826 1.726,1.003 l 1.12,0.365 c 0.586,0.118 1.185,0.118 1.536,0.582 0.179,0.244 0.368,0.544 0.244,1.131 -0.182,0.533 -0.529,0.886 -0.831,1.125 -0.412,0.362 -1.129,0.665 -2.134,0.665 -0.65,0 -1.187,-0.134 -1.718,-0.431 -0.471,-0.35 -0.831,-0.648 -1.012,-0.937 l -1.489,1.368 c 1.072,1.405 2.385,1.594 3.682,1.594 0.884,0 2.67,-0.116 4.156,-1.244 0.823,-0.708 1.422,-1.608 1.664,-2.376 0.117,-0.602 0.234,-1.478 -0.059,-2.022 -0.421,-0.826 -1.368,-1.18 -1.904,-1.304 l -0.831,-0.24 c -1.059,-0.24 -1.538,-0.354 -1.777,-0.652 -0.231,-0.169 -0.417,-0.529 -0.231,-1.24 0.107,-0.293 0.355,-0.775 0.819,-1.129 0.593,-0.359 1.14,-0.414 1.55,-0.414 0.531,0 1.006,0.124 1.425,0.414 0.357,0.234 0.647,0.538 0.886,0.836 l 1.482,-1.193 z"
       id="path90" />
    <path
       d="m 221.321,217.977 c -0.478,-0.708 -1.126,-1.061 -1.302,-1.125 -0.708,-0.403 -1.549,-0.474 -2.253,-0.474 -0.818,0 -1.719,0.07 -2.787,0.713 -0.772,0.541 -1.722,1.364 -2.136,2.732 -0.226,1.005 -0.117,1.773 0.24,2.252 0.414,0.537 1.193,0.826 1.718,1.003 l 1.065,0.365 c 0.593,0.118 1.193,0.118 1.604,0.582 0.179,0.244 0.355,0.544 0.179,1.131 -0.179,0.533 -0.529,0.886 -0.775,1.125 -0.416,0.362 -1.122,0.665 -2.134,0.665 -0.651,0 -1.18,-0.134 -1.776,-0.431 -0.48,-0.35 -0.775,-0.648 -1.01,-0.937 l -1.484,1.368 c 1.141,1.405 2.439,1.594 3.737,1.594 0.896,0 2.666,-0.116 4.156,-1.244 0.829,-0.708 1.423,-1.608 1.601,-2.376 0.179,-0.602 0.234,-1.478 -0.059,-2.022 -0.355,-0.826 -1.308,-1.18 -1.893,-1.304 l -0.837,-0.24 c -1.013,-0.24 -1.473,-0.354 -1.722,-0.652 -0.23,-0.169 -0.406,-0.529 -0.23,-1.24 0.117,-0.293 0.295,-0.775 0.829,-1.129 0.538,-0.359 1.125,-0.414 1.478,-0.414 0.602,0 1.07,0.124 1.488,0.414 0.361,0.234 0.65,0.538 0.889,0.836 l 1.415,-1.193 z"
       id="path92" />
    <path
       d="m 225.67,216.628 -0.42,1.533 h 1.363 l -2.716,10.142 h 2.244 l 3.141,-11.675 z m 1.426,-3.855 c -0.19,0.823 0.296,1.476 1.074,1.476 0.826,0 1.59,-0.654 1.828,-1.476 0.231,-0.78 -0.238,-1.427 -1.07,-1.427 -0.758,0 -1.593,0.646 -1.832,1.427 z"
       id="path94" />
    <path
       d="m 247.699,228.303 2.497,-9.192 c 0.782,-0.657 1.964,-1.189 3.027,-1.189 0.772,0 1.195,0.295 1.364,0.648 0.359,0.542 0.182,1.423 0.056,1.783 l -2.132,7.95 h 2.257 l 2.132,-7.767 c 0.244,-0.955 0.354,-2.081 -0.178,-3.027 -0.478,-0.768 -1.359,-1.13 -2.611,-1.13 -0.763,0 -2.069,0.18 -3.5,1.13 l 0.242,-0.882 h -3.626 l -0.407,1.533 h 1.361 l -2.725,10.142 h 2.242 z"
       id="path96" />
    <path
       d="m 173.519,211.465 -4.562,16.838 h 2.544 l 1.971,-7.404 h 1.708 l 2.379,7.404 h 3.075 l -2.724,-7.533 c 1.25,-0.128 2.913,-0.713 3.915,-1.484 1.119,-0.831 1.963,-2.017 2.245,-3.262 0.361,-1.193 0.194,-2.429 -0.515,-3.251 -0.955,-1.193 -2.855,-1.308 -4.22,-1.308 z m 4.219,7.518 h -3.737 l 1.487,-5.566 h 3.383 c 0.358,0 1.474,0 2.072,0.593 0.351,0.358 0.651,0.95 0.405,1.897 -0.234,0.891 -0.713,1.604 -1.416,2.197 -0.769,0.586 -1.605,0.829 -2.193,0.88 z"
       id="path98" />
    <path
       d="m 236.724,221.483 c -2.369,0.238 -4.332,1.185 -4.98,3.623 -0.062,0.285 -0.121,0.529 -0.121,0.764 v 0.414 c 0.059,1.308 0.947,2.26 2.904,2.26 0.708,0 1.421,-0.116 2.197,-0.428 0.065,0 0.121,-0.045 0.233,-0.106 0.775,-0.358 1.357,-0.954 1.546,-1.129 h 0.117 l -0.406,1.423 h 2.014 l 2.073,-7.533 c 0.301,-1.189 0.588,-2.376 -0.065,-3.261 -0.537,-0.831 -1.894,-1.13 -2.955,-1.13 -1.017,0 -1.906,0.124 -2.557,0.299 -2.067,0.529 -2.848,1.778 -2.908,2.903 l 2.083,0.12 c 0.168,-0.589 0.414,-1.01 0.826,-1.305 0.478,-0.35 1.189,-0.474 2.078,-0.474 0.479,0 1.065,0.055 1.301,0.474 0.363,0.418 0.24,1.01 0.124,1.549 l -0.418,1.478 h -1.661 c -0.479,-0.001 -1.002,-0.001 -1.422,0.059 z m 0,5.332 c -0.357,0.134 -0.712,0.189 -1.072,0.189 -0.464,0 -1.061,-0.055 -1.414,-0.542 -0.296,-0.418 -0.362,-0.829 -0.179,-1.425 0.117,-0.468 0.351,-0.947 0.943,-1.418 0.355,-0.24 0.831,-0.54 1.722,-0.648 0.293,-0.07 0.651,-0.124 1.075,-0.124 h 1.66 l -0.655,2.485 c -0.359,0.478 -0.713,0.772 -1.136,1.07 -0.348,0.19 -0.651,0.365 -0.944,0.414 z"
       id="path100" />
    <path
       d="m 290.889,216.628 -0.41,1.533 h 1.364 l -2.736,10.142 h 2.257 l 3.14,-11.675 z m 2.087,-3.855 c -0.186,0.823 0.289,1.476 1.068,1.476 0.761,0 1.594,-0.654 1.829,-1.476 0.244,-0.78 -0.235,-1.427 -1.068,-1.427 -0.763,0 -1.61,0.646 -1.829,1.427 z"
       id="path102" />
    <path
       d="m 299.491,216.628 -3.138,11.675 h 2.256 l 1.78,-6.706 c 0.293,-0.768 0.585,-1.539 1.008,-2.132 0.71,-1.129 1.532,-1.304 2.017,-1.304 0.296,0 0.644,0.055 0.888,0.295 0.167,0.183 0.237,0.527 0.237,0.95 l 2.017,-0.593 c 0.406,-1.181 0,-1.842 -0.708,-2.186 -0.369,-0.179 -0.779,-0.249 -1.193,-0.249 -1.305,0 -2.6,0.713 -3.5,1.957 l 0.471,-1.708 h -2.132 v 10e-4 z"
       id="path104" />
    <path
       d="m 311.957,211.225 -3.732,13.88 c -0.289,1.061 -0.831,3.198 1.844,3.198 h 1.301 l 0.412,-1.538 h -0.644 c -1.125,0 -0.834,-0.957 -0.782,-1.185 l 3.861,-14.355 z"
       id="path106" />
    <path
       d="m 318.056,216.628 -0.399,1.533 h 1.368 l -2.8,10.142 h 2.314 l 3.148,-11.675 z m 2.08,-3.855 c -0.182,0.823 0.296,1.476 1.068,1.476 0.834,0 1.606,-0.654 1.839,-1.476 0.178,-0.78 -0.3,-1.427 -1.061,-1.427 -0.836,0 -1.602,0.646 -1.846,1.427 z"
       id="path108" />
    <path
       d="m 326.345,228.303 2.428,-9.192 c 0.83,-0.657 2.019,-1.189 3.079,-1.189 0.774,0 1.196,0.295 1.368,0.648 0.414,0.542 0.12,1.423 0.061,1.783 l -2.129,7.95 h 2.245 l 2.136,-7.767 c 0.238,-0.955 0.358,-2.081 -0.179,-3.027 -0.464,-0.768 -1.364,-1.13 -2.602,-1.13 -0.834,0 -2.022,0.18 -3.5,1.13 l 0.235,-0.882 h -3.616 l -0.418,1.533 h 1.361 l -2.721,10.143 z"
       id="path110" />
    <path
       d="m 361.162,217.977 c -0.469,-0.708 -1.061,-1.061 -1.25,-1.125 -0.769,-0.403 -1.528,-0.474 -2.246,-0.474 -0.842,0 -1.722,0.07 -2.783,0.713 -0.833,0.541 -1.783,1.364 -2.136,2.732 -0.311,1.005 -0.121,1.773 0.228,2.252 0.361,0.537 1.131,0.826 1.667,1.003 l 1.127,0.365 c 0.585,0.118 1.192,0.118 1.528,0.582 0.251,0.244 0.369,0.544 0.251,1.131 -0.171,0.533 -0.527,0.886 -0.831,1.125 -0.362,0.362 -1.07,0.665 -2.134,0.665 -0.668,0 -1.136,-0.134 -1.729,-0.431 -0.469,-0.35 -0.819,-0.648 -1.002,-0.937 l -1.482,1.368 c 1.065,1.405 2.377,1.594 3.679,1.594 0.947,0 2.668,-0.116 4.15,-1.244 0.836,-0.708 1.415,-1.608 1.661,-2.376 0.179,-0.602 0.241,-1.478 -0.048,-2.022 -0.365,-0.826 -1.381,-1.18 -1.902,-1.304 l -0.84,-0.24 c -0.994,-0.24 -1.48,-0.354 -1.773,-0.652 -0.186,-0.169 -0.414,-0.529 -0.24,-1.24 0.118,-0.293 0.285,-0.775 0.833,-1.129 0.586,-0.359 1.178,-0.414 1.542,-0.414 0.591,0 0.999,0.124 1.471,0.414 0.304,0.234 0.595,0.538 0.836,0.836 l 1.423,-1.193 z"
       id="path112" />
    <path
       d="m 270.876,228.303 h 2.551 l 2.551,-4.098 h 6.46 l 0.299,4.098 h 2.907 l -1.597,-16.838 h -2.078 l -11.092,16.838 z m 6.288,-6.048 4.563,-7.176 h 0.056 l 0.544,7.176 z"
       id="path114" />
    <path
       d="m 341.309,222.971 h 7.045 l 0.187,-0.772 c 0.471,-1.557 0.94,-3.152 0.121,-4.45 -0.714,-1.12 -2.138,-1.37 -3.151,-1.37 -1.502,0 -2.943,0.538 -4.088,1.543 -1.549,1.364 -2.186,3.196 -2.546,4.746 -0.355,1.247 -0.717,3.14 0.231,4.509 0.888,1.176 2.5,1.364 3.619,1.364 0.908,0 1.748,-0.129 2.618,-0.428 0.467,-0.169 1.057,-0.409 1.59,-0.703 l -0.345,-1.368 c -0.544,0.24 -0.953,0.418 -1.55,0.546 -0.553,0.1 -1.075,0.224 -1.666,0.224 -0.882,0 -1.659,-0.299 -2.066,-0.822 -0.658,-0.772 -0.357,-1.968 -0.175,-2.551 l 0.176,-0.469 z m 0.351,-1.549 0.117,-0.523 c 0.245,-0.606 0.538,-1.553 1.299,-2.209 0.501,-0.487 1.27,-0.768 1.964,-0.768 0.597,0 1.181,0.18 1.484,0.534 0.527,0.717 0.289,1.722 0.066,2.494 l -0.129,0.474 h -4.801 v -0.001 z"
       id="path116" />
  </g>
</svg>
